<svg width="1121" height="101" viewBox="0 0 1121 101" fill="none" xmlns="http://www.w3.org/2000/svg">
<path d="M5.62181 61.986C7.02581 61.986 8.12981 62.34 8.93381 63.048C9.73781 63.756 10.1398 64.746 10.1398 66.018C10.1398 66.534 10.0618 67.044 9.90581 67.548C9.74981 68.04 9.49781 68.49 9.14981 68.898C8.81381 69.294 8.36981 69.618 7.81781 69.87C7.26581 70.11 6.59381 70.23 5.80181 70.23H3.87581V75H2.12981V61.986H5.62181ZM5.80181 68.52C6.30581 68.52 6.72581 68.442 7.06181 68.286C7.39781 68.118 7.66181 67.902 7.85381 67.638C8.05781 67.374 8.20181 67.104 8.28581 66.828C8.36981 66.54 8.41181 66.282 8.41181 66.054C8.41181 65.706 8.32781 65.346 8.15981 64.974C8.00381 64.602 7.73981 64.29 7.36781 64.038C7.00781 63.786 6.51581 63.66 5.89181 63.66H3.87581V68.52H5.80181ZM11.7729 71.202C11.7729 70.458 11.9469 69.786 12.2949 69.186C12.6549 68.586 13.1469 68.112 13.7709 67.764C14.3949 67.416 15.1089 67.242 15.9129 67.242C16.7169 67.242 17.4249 67.416 18.0369 67.764C18.6489 68.112 19.1229 68.586 19.4589 69.186C19.8069 69.786 19.9809 70.458 19.9809 71.202C19.9809 71.946 19.8069 72.618 19.4589 73.218C19.1229 73.818 18.6429 74.298 18.0189 74.658C17.4069 75.006 16.6929 75.18 15.8769 75.18C15.0849 75.18 14.3769 75.018 13.7529 74.694C13.1409 74.37 12.6549 73.908 12.2949 73.308C11.9469 72.708 11.7729 72.006 11.7729 71.202ZM13.4649 71.22C13.4649 71.7 13.5669 72.138 13.7709 72.534C13.9869 72.918 14.2749 73.224 14.6349 73.452C14.9949 73.68 15.4029 73.794 15.8589 73.794C16.3269 73.794 16.7409 73.68 17.1009 73.452C17.4609 73.224 17.7429 72.918 17.9469 72.534C18.1629 72.138 18.2709 71.7 18.2709 71.22C18.2709 70.74 18.1629 70.308 17.9469 69.924C17.7429 69.528 17.4609 69.216 17.1009 68.988C16.7409 68.748 16.3269 68.628 15.8589 68.628C15.4029 68.628 14.9889 68.748 14.6169 68.988C14.2569 69.228 13.9749 69.546 13.7709 69.942C13.5669 70.326 13.4649 70.752 13.4649 71.22ZM26.6395 75.18C26.0995 75.18 25.5775 75.066 25.0735 74.838C24.5815 74.598 24.1915 74.28 23.9035 73.884V78.582H22.2295V67.422H23.6875L23.8315 68.682C24.1915 68.262 24.6355 67.92 25.1635 67.656C25.7035 67.38 26.2975 67.242 26.9455 67.242C27.6535 67.242 28.2835 67.41 28.8355 67.746C29.3995 68.082 29.8435 68.55 30.1675 69.15C30.4915 69.75 30.6535 70.452 30.6535 71.256C30.6535 72.06 30.4735 72.756 30.1135 73.344C29.7655 73.932 29.2855 74.388 28.6735 74.712C28.0735 75.024 27.3955 75.18 26.6395 75.18ZM26.3155 73.83C26.7835 73.83 27.2155 73.722 27.6115 73.506C28.0195 73.278 28.3435 72.972 28.5835 72.588C28.8235 72.204 28.9435 71.766 28.9435 71.274C28.9435 70.77 28.8295 70.326 28.6015 69.942C28.3735 69.546 28.0675 69.24 27.6835 69.024C27.3115 68.796 26.8915 68.682 26.4235 68.682C25.7755 68.682 25.2295 68.862 24.7855 69.222C24.3415 69.582 24.0475 70.05 23.9035 70.626V71.886C23.9995 72.45 24.2695 72.918 24.7135 73.29C25.1695 73.65 25.7035 73.83 26.3155 73.83ZM35.2754 75.288C34.5914 75.288 34.0274 75.084 33.5834 74.676C33.1394 74.256 32.9114 73.716 32.8994 73.056V67.548H34.5734V72.462C34.5974 72.87 34.7174 73.2 34.9334 73.452C35.1494 73.704 35.4854 73.836 35.9414 73.848C36.3494 73.848 36.7214 73.728 37.0574 73.488C37.3934 73.236 37.6574 72.9 37.8494 72.48C38.0534 72.048 38.1554 71.562 38.1554 71.022V67.548H39.8294V75H38.3174L38.1914 73.596C37.9514 74.088 37.5674 74.496 37.0394 74.82C36.5234 75.132 35.9354 75.288 35.2754 75.288ZM42.7432 61.05H44.4172V75H42.7432V61.05ZM50.445 75.18C49.737 75.18 49.095 75.03 48.519 74.73C47.955 74.43 47.505 73.992 47.169 73.416C46.845 72.828 46.683 72.114 46.683 71.274C46.683 70.434 46.851 69.714 47.187 69.114C47.535 68.514 47.997 68.052 48.573 67.728C49.161 67.404 49.803 67.242 50.499 67.242C51.171 67.242 51.741 67.386 52.209 67.674C52.677 67.962 53.043 68.31 53.307 68.718L53.433 67.548H54.981V75H53.307V73.776C53.163 73.968 52.953 74.172 52.677 74.388C52.413 74.604 52.089 74.79 51.705 74.946C51.333 75.102 50.913 75.18 50.445 75.18ZM50.895 73.794C51.507 73.794 52.029 73.626 52.461 73.29C52.893 72.942 53.175 72.474 53.307 71.886V70.41C53.163 69.894 52.863 69.468 52.407 69.132C51.951 68.796 51.429 68.628 50.841 68.628C50.385 68.628 49.971 68.736 49.599 68.952C49.227 69.168 48.927 69.468 48.699 69.852C48.483 70.236 48.375 70.68 48.375 71.184C48.375 71.676 48.489 72.12 48.717 72.516C48.945 72.9 49.251 73.212 49.635 73.452C50.019 73.68 50.439 73.794 50.895 73.794ZM59.3895 67.548L59.5155 69.294C59.7195 68.874 60.0015 68.514 60.3615 68.214C60.7215 67.902 61.0935 67.668 61.4775 67.512C61.8735 67.344 62.2155 67.254 62.5035 67.242L62.4315 68.916C61.8675 68.892 61.3695 69.006 60.9375 69.258C60.5055 69.498 60.1695 69.828 59.9295 70.248C59.6895 70.668 59.5695 71.118 59.5695 71.598V75H57.8955V67.548H59.3895ZM77.5044 64.308C77.0604 64.08 76.5744 63.882 76.0464 63.714C75.5184 63.546 75.0084 63.462 74.5164 63.462C73.8084 63.462 73.2444 63.624 72.8244 63.948C72.4164 64.272 72.2124 64.71 72.2124 65.262C72.2124 65.658 72.3444 65.994 72.6084 66.27C72.8844 66.546 73.2324 66.792 73.6524 67.008C74.0844 67.212 74.5404 67.404 75.0204 67.584C75.5604 67.788 76.0824 68.034 76.5864 68.322C77.0904 68.61 77.5044 69 77.8284 69.492C78.1644 69.972 78.3324 70.62 78.3324 71.436C78.3324 72.132 78.1584 72.762 77.8104 73.326C77.4624 73.878 76.9704 74.322 76.3344 74.658C75.6984 74.982 74.9424 75.144 74.0664 75.144C73.2024 75.144 72.3984 75.006 71.6544 74.73C70.9224 74.454 70.2984 74.136 69.7824 73.776L70.5564 72.39C70.9764 72.714 71.4924 72.996 72.1044 73.236C72.7284 73.476 73.3224 73.596 73.8864 73.596C74.3064 73.596 74.7144 73.524 75.1104 73.38C75.5184 73.236 75.8544 73.008 76.1184 72.696C76.3824 72.372 76.5144 71.958 76.5144 71.454C76.5144 71.022 76.3944 70.656 76.1544 70.356C75.9144 70.056 75.6024 69.804 75.2184 69.6C74.8464 69.384 74.4384 69.192 73.9944 69.024C73.5864 68.88 73.1724 68.712 72.7524 68.52C72.3324 68.328 71.9424 68.1 71.5824 67.836C71.2344 67.56 70.9524 67.224 70.7364 66.828C70.5204 66.432 70.4124 65.952 70.4124 65.388C70.4124 64.704 70.5744 64.11 70.8984 63.606C71.2344 63.09 71.6904 62.688 72.2664 62.4C72.8424 62.1 73.5084 61.938 74.2644 61.914C75.0924 61.914 75.8244 62.016 76.4604 62.22C77.1084 62.424 77.6784 62.67 78.1704 62.958L77.5044 64.308ZM85.245 75.18C84.705 75.18 84.183 75.066 83.679 74.838C83.187 74.598 82.797 74.28 82.509 73.884V78.582H80.835V67.422H82.293L82.437 68.682C82.797 68.262 83.241 67.92 83.769 67.656C84.309 67.38 84.903 67.242 85.551 67.242C86.259 67.242 86.889 67.41 87.441 67.746C88.005 68.082 88.449 68.55 88.773 69.15C89.097 69.75 89.259 70.452 89.259 71.256C89.259 72.06 89.079 72.756 88.719 73.344C88.371 73.932 87.891 74.388 87.279 74.712C86.679 75.024 86.001 75.18 85.245 75.18ZM84.921 73.83C85.389 73.83 85.821 73.722 86.217 73.506C86.625 73.278 86.949 72.972 87.189 72.588C87.429 72.204 87.549 71.766 87.549 71.274C87.549 70.77 87.435 70.326 87.207 69.942C86.979 69.546 86.673 69.24 86.289 69.024C85.917 68.796 85.497 68.682 85.029 68.682C84.381 68.682 83.835 68.862 83.391 69.222C82.947 69.582 82.653 70.05 82.509 70.626V71.886C82.605 72.45 82.875 72.918 83.319 73.29C83.775 73.65 84.309 73.83 84.921 73.83ZM90.8569 71.202C90.8569 70.458 91.0309 69.786 91.3789 69.186C91.7389 68.586 92.2309 68.112 92.8549 67.764C93.4789 67.416 94.1929 67.242 94.9969 67.242C95.8009 67.242 96.5089 67.416 97.1209 67.764C97.7329 68.112 98.2069 68.586 98.5429 69.186C98.8909 69.786 99.0649 70.458 99.0649 71.202C99.0649 71.946 98.8909 72.618 98.5429 73.218C98.2069 73.818 97.7269 74.298 97.1029 74.658C96.4909 75.006 95.7769 75.18 94.9609 75.18C94.1689 75.18 93.4609 75.018 92.8369 74.694C92.2249 74.37 91.7389 73.908 91.3789 73.308C91.0309 72.708 90.8569 72.006 90.8569 71.202ZM92.5489 71.22C92.5489 71.7 92.6509 72.138 92.8549 72.534C93.0709 72.918 93.3589 73.224 93.7189 73.452C94.0789 73.68 94.4869 73.794 94.9429 73.794C95.4109 73.794 95.8249 73.68 96.1849 73.452C96.5449 73.224 96.8269 72.918 97.0309 72.534C97.2469 72.138 97.3549 71.7 97.3549 71.22C97.3549 70.74 97.2469 70.308 97.0309 69.924C96.8269 69.528 96.5449 69.216 96.1849 68.988C95.8249 68.748 95.4109 68.628 94.9429 68.628C94.4869 68.628 94.0729 68.748 93.7009 68.988C93.3409 69.228 93.0589 69.546 92.8549 69.942C92.6509 70.326 92.5489 70.752 92.5489 71.22ZM102.033 64.272H103.725V67.566H105.759V68.898H103.725V75H102.033V68.898H100.665V67.566H102.033V64.272ZM114.107 75V69.042H112.829V67.53H114.107V64.398C114.107 63.318 114.353 62.49 114.845 61.914C115.337 61.338 116.057 61.05 117.005 61.05C117.245 61.05 117.515 61.086 117.815 61.158C118.127 61.23 118.403 61.344 118.643 61.5L117.923 62.724C117.815 62.616 117.695 62.544 117.563 62.508C117.431 62.46 117.299 62.436 117.167 62.436C116.735 62.436 116.393 62.586 116.141 62.886C115.901 63.186 115.781 63.696 115.781 64.416V67.53H118.157V69.042H115.781V75H114.107ZM119.281 71.202C119.281 70.458 119.455 69.786 119.803 69.186C120.163 68.586 120.655 68.112 121.279 67.764C121.903 67.416 122.617 67.242 123.421 67.242C124.225 67.242 124.933 67.416 125.545 67.764C126.157 68.112 126.631 68.586 126.967 69.186C127.315 69.786 127.489 70.458 127.489 71.202C127.489 71.946 127.315 72.618 126.967 73.218C126.631 73.818 126.151 74.298 125.527 74.658C124.915 75.006 124.201 75.18 123.385 75.18C122.593 75.18 121.885 75.018 121.261 74.694C120.649 74.37 120.163 73.908 119.803 73.308C119.455 72.708 119.281 72.006 119.281 71.202ZM120.973 71.22C120.973 71.7 121.075 72.138 121.279 72.534C121.495 72.918 121.783 73.224 122.143 73.452C122.503 73.68 122.911 73.794 123.367 73.794C123.835 73.794 124.249 73.68 124.609 73.452C124.969 73.224 125.251 72.918 125.455 72.534C125.671 72.138 125.779 71.7 125.779 71.22C125.779 70.74 125.671 70.308 125.455 69.924C125.251 69.528 124.969 69.216 124.609 68.988C124.249 68.748 123.835 68.628 123.367 68.628C122.911 68.628 122.497 68.748 122.125 68.988C121.765 69.228 121.483 69.546 121.279 69.942C121.075 70.326 120.973 70.752 120.973 71.22ZM131.231 67.548L131.357 69.294C131.561 68.874 131.843 68.514 132.203 68.214C132.563 67.902 132.935 67.668 133.319 67.512C133.715 67.344 134.057 67.254 134.345 67.242L134.273 68.916C133.709 68.892 133.211 69.006 132.779 69.258C132.347 69.498 132.011 69.828 131.771 70.248C131.531 70.668 131.411 71.118 131.411 71.598V75H129.737V67.548H131.231ZM18.5574 97.414L8.99941 87.73L9.03541 97H7.27141V83.59H7.36141L16.9014 93.418L16.8654 83.986H18.6114V97.414H18.5574ZM21.2914 93.202C21.2914 92.458 21.4654 91.786 21.8134 91.186C22.1734 90.586 22.6654 90.112 23.2894 89.764C23.9134 89.416 24.6274 89.242 25.4314 89.242C26.2354 89.242 26.9434 89.416 27.5554 89.764C28.1674 90.112 28.6414 90.586 28.9774 91.186C29.3254 91.786 29.4994 92.458 29.4994 93.202C29.4994 93.946 29.3254 94.618 28.9774 95.218C28.6414 95.818 28.1614 96.298 27.5374 96.658C26.9254 97.006 26.2114 97.18 25.3954 97.18C24.6034 97.18 23.8954 97.018 23.2714 96.694C22.6594 96.37 22.1734 95.908 21.8134 95.308C21.4654 94.708 21.2914 94.006 21.2914 93.202ZM22.9834 93.22C22.9834 93.7 23.0854 94.138 23.2894 94.534C23.5054 94.918 23.7934 95.224 24.1534 95.452C24.5134 95.68 24.9214 95.794 25.3774 95.794C25.8454 95.794 26.2594 95.68 26.6194 95.452C26.9794 95.224 27.2614 94.918 27.4654 94.534C27.6814 94.138 27.7894 93.7 27.7894 93.22C27.7894 92.74 27.6814 92.308 27.4654 91.924C27.2614 91.528 26.9794 91.216 26.6194 90.988C26.2594 90.748 25.8454 90.628 25.3774 90.628C24.9214 90.628 24.5074 90.748 24.1354 90.988C23.7754 91.228 23.4934 91.546 23.2894 91.942C23.0854 92.326 22.9834 92.752 22.9834 93.22ZM33.242 89.548L33.368 91.294C33.572 90.874 33.854 90.514 34.214 90.214C34.574 89.902 34.946 89.668 35.33 89.512C35.726 89.344 36.068 89.254 36.356 89.242L36.284 90.916C35.72 90.892 35.222 91.006 34.79 91.258C34.358 91.498 34.022 91.828 33.782 92.248C33.542 92.668 33.422 93.118 33.422 93.598V97H31.748V89.548H33.242ZM39.2356 86.272H40.9276V89.566H42.9616V90.898H40.9276V97H39.2356V90.898H37.8676V89.566H39.2356V86.272ZM45.0019 97V83.05H46.6399V90.898C46.9039 90.418 47.2939 90.028 47.8099 89.728C48.3259 89.416 48.9319 89.26 49.6279 89.26C50.3239 89.26 50.8939 89.47 51.3379 89.89C51.7939 90.298 52.0339 90.832 52.0579 91.492V97H50.3659V92.068C50.3419 91.672 50.2159 91.348 49.9879 91.096C49.7719 90.844 49.4299 90.712 48.9619 90.7C48.5299 90.7 48.1399 90.826 47.7919 91.078C47.4559 91.318 47.1859 91.648 46.9819 92.068C46.7779 92.488 46.6759 92.968 46.6759 93.508V97H45.0019ZM58.4072 97.18C57.5672 97.18 56.8352 97.012 56.2112 96.676C55.5992 96.328 55.1252 95.854 54.7892 95.254C54.4652 94.654 54.3032 93.976 54.3032 93.22C54.3032 92.488 54.4832 91.822 54.8432 91.222C55.2152 90.61 55.7132 90.13 56.3372 89.782C56.9732 89.422 57.6752 89.242 58.4432 89.242C59.4272 89.242 60.2432 89.53 60.8912 90.106C61.5392 90.682 61.9832 91.474 62.2232 92.482L56.3192 94.552C56.5232 94.924 56.8112 95.218 57.1832 95.434C57.5552 95.638 57.9752 95.74 58.4432 95.74C58.7792 95.74 59.0972 95.68 59.3972 95.56C59.6972 95.44 59.9852 95.284 60.2612 95.092L61.0352 96.334C60.6512 96.586 60.2252 96.79 59.7572 96.946C59.3012 97.102 58.8512 97.18 58.4072 97.18ZM55.9592 93.13C55.9472 93.274 55.9532 93.412 55.9772 93.544L60.3152 91.942C60.1472 91.582 59.9012 91.264 59.5772 90.988C59.2652 90.712 58.8452 90.574 58.3172 90.574C57.6332 90.574 57.0692 90.814 56.6252 91.294C56.1812 91.774 55.9592 92.386 55.9592 93.13ZM65.7967 89.548L65.9227 91.294C66.1267 90.874 66.4087 90.514 66.7687 90.214C67.1287 89.902 67.5007 89.668 67.8847 89.512C68.2807 89.344 68.6227 89.254 68.9107 89.242L68.8387 90.916C68.2747 90.892 67.7767 91.006 67.3447 91.258C66.9127 91.498 66.5767 91.828 66.3367 92.248C66.0967 92.668 65.9767 93.118 65.9767 93.598V97H64.3027V89.548H65.7967ZM72.5823 89.548L72.6903 90.988C72.9423 90.46 73.3323 90.04 73.8603 89.728C74.3883 89.416 75.0003 89.26 75.6963 89.26C76.3923 89.26 76.9623 89.47 77.4063 89.89C77.8623 90.298 78.1023 90.832 78.1263 91.492V97H76.4343V92.068C76.4103 91.672 76.2843 91.348 76.0563 91.096C75.8403 90.844 75.4983 90.712 75.0303 90.7C74.3823 90.7 73.8363 90.964 73.3923 91.492C72.9603 92.008 72.7443 92.68 72.7443 93.508V97H71.0703V89.548H72.5823ZM87.1288 83.986H88.8748V95.308H95.4988V97H87.1288V83.986ZM97.9121 89.548H99.5861V97H97.9121V89.548ZM97.7861 86.866C97.7861 86.59 97.8881 86.368 98.0921 86.2C98.3081 86.02 98.5421 85.93 98.7941 85.93C99.0461 85.93 99.2741 86.02 99.4781 86.2C99.6821 86.368 99.7841 86.59 99.7841 86.866C99.7841 87.142 99.6821 87.37 99.4781 87.55C99.2741 87.718 99.0461 87.802 98.7941 87.802C98.5421 87.802 98.3081 87.718 98.0921 87.55C97.8881 87.37 97.7861 87.142 97.7861 86.866ZM106.1 100.69C105.272 100.69 104.582 100.546 104.03 100.258C103.478 99.982 102.968 99.628 102.5 99.196L103.49 98.044C103.874 98.428 104.27 98.716 104.678 98.908C105.086 99.112 105.548 99.214 106.064 99.214C106.904 99.214 107.546 99.01 107.99 98.602C108.434 98.206 108.662 97.678 108.674 97.018V95.65C108.422 96.094 108.032 96.46 107.504 96.748C106.976 97.036 106.352 97.18 105.632 97.18C104.936 97.18 104.3 97.006 103.724 96.658C103.16 96.31 102.704 95.842 102.356 95.254C102.02 94.654 101.852 93.982 101.852 93.238C101.852 92.458 102.032 91.768 102.392 91.168C102.752 90.568 103.226 90.1 103.814 89.764C104.402 89.416 105.044 89.242 105.74 89.242C106.388 89.242 106.976 89.368 107.504 89.62C108.032 89.872 108.428 90.196 108.692 90.592L108.836 89.548H110.366V97.054C110.366 97.726 110.192 98.338 109.844 98.89C109.496 99.442 109.004 99.88 108.368 100.204C107.732 100.528 106.976 100.69 106.1 100.69ZM103.544 93.184C103.544 93.676 103.658 94.12 103.886 94.516C104.114 94.9 104.42 95.212 104.804 95.452C105.2 95.68 105.638 95.794 106.118 95.794C106.766 95.794 107.318 95.62 107.774 95.272C108.242 94.912 108.542 94.456 108.674 93.904V92.428C108.518 91.9 108.206 91.468 107.738 91.132C107.27 90.796 106.73 90.628 106.118 90.628C105.626 90.628 105.182 90.736 104.786 90.952C104.402 91.168 104.096 91.468 103.868 91.852C103.652 92.236 103.544 92.68 103.544 93.184ZM113.275 97V83.05H114.913V90.898C115.177 90.418 115.567 90.028 116.083 89.728C116.599 89.416 117.205 89.26 117.901 89.26C118.597 89.26 119.167 89.47 119.611 89.89C120.067 90.298 120.307 90.832 120.331 91.492V97H118.639V92.068C118.615 91.672 118.489 91.348 118.261 91.096C118.045 90.844 117.703 90.712 117.235 90.7C116.803 90.7 116.413 90.826 116.065 91.078C115.729 91.318 115.459 91.648 115.255 92.068C115.051 92.488 114.949 92.968 114.949 93.508V97H113.275ZM123.945 86.272H125.637V89.566H127.671V90.898H125.637V97H123.945V90.898H122.577V89.566H123.945V86.272ZM131.817 97.144C131.277 97.144 130.755 97.054 130.251 96.874C129.759 96.682 129.351 96.4 129.027 96.028L129.747 95.056C130.047 95.356 130.365 95.584 130.701 95.74C131.037 95.884 131.361 95.956 131.673 95.956C132.033 95.956 132.345 95.884 132.609 95.74C132.885 95.596 133.023 95.35 133.023 95.002C133.023 94.738 132.933 94.528 132.753 94.372C132.585 94.216 132.363 94.096 132.087 94.012C131.823 93.916 131.547 93.82 131.259 93.724C129.987 93.316 129.351 92.59 129.351 91.546C129.351 91.162 129.447 90.796 129.639 90.448C129.843 90.1 130.137 89.818 130.521 89.602C130.917 89.386 131.403 89.278 131.979 89.278C132.495 89.278 132.957 89.344 133.365 89.476C133.773 89.608 134.157 89.818 134.517 90.106L133.851 91.132C133.635 90.916 133.377 90.754 133.077 90.646C132.789 90.526 132.525 90.46 132.285 90.448C131.961 90.448 131.673 90.526 131.421 90.682C131.181 90.838 131.061 91.054 131.061 91.33C131.049 91.582 131.127 91.786 131.295 91.942C131.463 92.086 131.679 92.206 131.943 92.302C132.219 92.398 132.495 92.488 132.771 92.572C133.311 92.752 133.767 92.998 134.139 93.31C134.523 93.622 134.715 94.078 134.715 94.678C134.715 95.35 134.475 95.932 133.995 96.424C133.515 96.904 132.789 97.144 131.817 97.144Z" fill="#14202B"/>
<path d="M86.6087 20.5538C85.065 16.5607 82.385 13.1074 78.9001 10.6209C75.4152 8.13429 71.278 6.72338 66.9999 6.5625C62.7219 6.72338 58.5847 8.13429 55.0998 10.6209C51.6148 13.1074 48.9349 16.5607 47.3912 20.5538C47.2869 20.8421 47.2869 21.1579 47.3912 21.4462C48.9349 25.4393 51.6148 28.8926 55.0998 31.3791C58.5847 33.8657 62.7219 35.2766 66.9999 35.4375C71.278 35.2766 75.4152 33.8657 78.9001 31.3791C82.385 28.8926 85.065 25.4393 86.6087 21.4462C86.7129 21.1579 86.7129 20.8421 86.6087 20.5538ZM66.9999 32.8125C60.0437 32.8125 52.6937 27.6544 50.0293 21C52.6937 14.3456 60.0437 9.1875 66.9999 9.1875C73.9562 9.1875 81.3062 14.3456 83.9706 21C81.3062 27.6544 73.9562 32.8125 66.9999 32.8125Z" fill="black"/>
<path d="M67 13.125C65.4425 13.125 63.9199 13.5869 62.6249 14.4522C61.3298 15.3175 60.3205 16.5474 59.7245 17.9864C59.1284 19.4253 58.9725 21.0087 59.2763 22.5363C59.5802 24.0639 60.3302 25.4671 61.4315 26.5685C62.5329 27.6698 63.9361 28.4198 65.4637 28.7237C66.9913 29.0275 68.5747 28.8716 70.0136 28.2756C71.4526 27.6795 72.6825 26.6702 73.5478 25.3751C74.4131 24.0801 74.875 22.5575 74.875 21C74.875 18.9114 74.0453 16.9084 72.5685 15.4315C71.0916 13.9547 69.0886 13.125 67 13.125ZM67 26.25C65.9617 26.25 64.9466 25.9421 64.0833 25.3652C63.2199 24.7883 62.547 23.9684 62.1496 23.0091C61.7523 22.0498 61.6483 20.9942 61.8509 19.9758C62.0535 18.9574 62.5535 18.0219 63.2877 17.2877C64.0219 16.5535 64.9574 16.0534 65.9758 15.8509C66.9942 15.6483 68.0498 15.7523 69.0091 16.1496C69.9684 16.547 70.7883 17.2199 71.3652 18.0833C71.9421 18.9466 72.25 19.9616 72.25 21C72.25 22.3924 71.6969 23.7277 70.7123 24.7123C69.7277 25.6969 68.3924 26.25 67 26.25Z" fill="black"/>
<path d="M239.986 72.986H247.708V74.66H241.732V78.8H246.97V80.474H241.732V86H239.986V72.986ZM251.279 78.548L251.405 80.294C251.609 79.874 251.891 79.514 252.251 79.214C252.611 78.902 252.983 78.668 253.367 78.512C253.763 78.344 254.105 78.254 254.393 78.242L254.321 79.916C253.757 79.892 253.259 80.006 252.827 80.258C252.395 80.498 252.059 80.828 251.819 81.248C251.579 81.668 251.459 82.118 251.459 82.598V86H249.785V78.548H251.279ZM259.692 86.18C258.852 86.18 258.12 86.012 257.496 85.676C256.884 85.328 256.41 84.854 256.074 84.254C255.75 83.654 255.588 82.976 255.588 82.22C255.588 81.488 255.768 80.822 256.128 80.222C256.5 79.61 256.998 79.13 257.622 78.782C258.258 78.422 258.96 78.242 259.728 78.242C260.712 78.242 261.528 78.53 262.176 79.106C262.824 79.682 263.268 80.474 263.508 81.482L257.604 83.552C257.808 83.924 258.096 84.218 258.468 84.434C258.84 84.638 259.26 84.74 259.728 84.74C260.064 84.74 260.382 84.68 260.682 84.56C260.982 84.44 261.27 84.284 261.546 84.092L262.32 85.334C261.936 85.586 261.51 85.79 261.042 85.946C260.586 86.102 260.136 86.18 259.692 86.18ZM257.244 82.13C257.232 82.274 257.238 82.412 257.262 82.544L261.6 80.942C261.432 80.582 261.186 80.264 260.862 79.988C260.55 79.712 260.13 79.574 259.602 79.574C258.918 79.574 258.354 79.814 257.91 80.294C257.466 80.774 257.244 81.386 257.244 82.13ZM269.044 86.18C268.204 86.18 267.472 86.012 266.848 85.676C266.236 85.328 265.762 84.854 265.426 84.254C265.102 83.654 264.94 82.976 264.94 82.22C264.94 81.488 265.12 80.822 265.48 80.222C265.852 79.61 266.35 79.13 266.974 78.782C267.61 78.422 268.312 78.242 269.08 78.242C270.064 78.242 270.88 78.53 271.528 79.106C272.176 79.682 272.62 80.474 272.86 81.482L266.956 83.552C267.16 83.924 267.448 84.218 267.82 84.434C268.192 84.638 268.612 84.74 269.08 84.74C269.416 84.74 269.734 84.68 270.034 84.56C270.334 84.44 270.622 84.284 270.898 84.092L271.672 85.334C271.288 85.586 270.862 85.79 270.394 85.946C269.938 86.102 269.488 86.18 269.044 86.18ZM266.596 82.13C266.584 82.274 266.59 82.412 266.614 82.544L270.952 80.942C270.784 80.582 270.538 80.264 270.214 79.988C269.902 79.712 269.482 79.574 268.954 79.574C268.27 79.574 267.706 79.814 267.262 80.294C266.818 80.774 266.596 81.386 266.596 82.13ZM279.915 73.04H281.949L285.297 82.508L287.565 76.622L286.179 73.04H287.907L291.525 82.31L294.729 73.04H296.601L291.471 86.576L288.429 78.818L285.099 86.594L279.915 73.04ZM299.189 72.986H300.935V86H299.189V72.986ZM304.674 72.986H312.396V74.66H306.42V78.8H311.658V80.474H306.42V86H304.674V72.986ZM315.273 72.986H317.019V86H315.273V72.986Z" fill="#14202B"/>
<path d="M298.383 16.0519C298.515 15.9237 298.618 15.7684 298.684 15.5968C298.75 15.4251 298.778 15.2411 298.767 15.0575C298.755 14.8739 298.704 14.695 298.616 14.5331C298.529 14.3712 298.407 14.2303 298.26 14.1199C292.663 10.051 285.919 7.86433 279 7.87504C271.805 7.87504 265.148 10.1903 259.74 14.1199C259.593 14.2301 259.471 14.3709 259.384 14.5326C259.296 14.6944 259.244 14.8732 259.232 15.0569C259.22 15.2405 259.248 15.4246 259.314 15.5963C259.38 15.7681 259.483 15.9235 259.614 16.0519C259.844 16.2779 260.146 16.4151 260.467 16.4391C260.788 16.4632 261.108 16.3725 261.368 16.1832C266.5 12.4793 272.671 10.4903 279 10.5C285.581 10.5 291.671 12.6053 296.63 16.1805C297.168 16.569 297.916 16.5218 298.383 16.0519Z" fill="black"/>
<path d="M292.726 21.7114C292.862 21.5809 292.966 21.4219 293.032 21.246C293.098 21.07 293.124 20.8816 293.109 20.6943C293.093 20.507 293.035 20.3256 292.941 20.1633C292.846 20.0009 292.716 19.8617 292.561 19.7558C288.525 17.1339 283.813 15.7422 279 15.75C274 15.75 269.34 17.22 265.439 19.7558C265.283 19.8611 265.153 20 265.058 20.1624C264.962 20.3248 264.905 20.5064 264.889 20.694C264.873 20.8816 264.899 21.0704 264.966 21.2464C265.033 21.4225 265.138 21.5814 265.274 21.7114C265.498 21.9297 265.789 22.0655 266.1 22.0965C266.411 22.1275 266.723 22.0519 266.986 21.882C270.571 19.5853 274.742 18.368 279 18.375C283.258 18.3685 287.427 19.5858 291.012 21.882C291.553 22.2285 292.272 22.1655 292.726 21.7114ZM286.996 27.4418C287.589 26.8485 287.482 25.8537 286.733 25.473C284.338 24.2541 281.688 23.6208 279 23.625C276.218 23.625 273.587 24.2918 271.267 25.473C270.519 25.8537 270.411 26.8485 271.004 27.4418L271.044 27.4812C271.464 27.9012 272.112 27.9799 272.648 27.7174C274.625 26.7484 276.798 26.2463 279 26.25C281.279 26.25 283.436 26.7777 285.353 27.72C285.886 27.9825 286.534 27.9038 286.954 27.4812L286.996 27.4418ZM281.783 32.655C282.297 32.1405 282.302 31.29 281.678 30.9225C280.868 30.4405 279.943 30.1865 279 30.1875C278.058 30.1865 277.133 30.4405 276.323 30.9225C275.698 31.29 275.703 32.1405 276.218 32.655L278.071 34.5083C278.317 34.7543 278.651 34.8926 278.999 34.8926C279.347 34.8926 279.681 34.7543 279.927 34.5083L281.783 32.6524V32.655Z" fill="black"/>
<path d="M424.539 63.156L421.821 67.53C422.361 67.554 422.871 67.692 423.351 67.944C423.831 68.184 424.215 68.556 424.503 69.06C424.803 69.564 424.953 70.23 424.953 71.058C424.953 71.898 424.761 72.624 424.377 73.236C424.005 73.848 423.501 74.322 422.865 74.658C422.229 74.982 421.527 75.144 420.759 75.144C420.183 75.144 419.607 75.03 419.031 74.802C418.455 74.562 417.987 74.244 417.627 73.848L418.527 72.408C418.743 72.684 419.049 72.93 419.445 73.146C419.853 73.35 420.279 73.452 420.723 73.452C421.383 73.452 421.953 73.23 422.433 72.786C422.913 72.342 423.153 71.73 423.153 70.95C423.153 70.278 422.949 69.744 422.541 69.348C422.133 68.94 421.587 68.736 420.903 68.736C420.555 68.736 420.261 68.766 420.021 68.826C419.781 68.874 419.565 68.934 419.373 69.006L419.319 68.934L421.965 64.83H418.329V63.156H424.539ZM433.68 75V61.572H433.698L440.106 70.662L446.604 61.572H446.622V75H444.894V66.594L440.106 73.362H440.07L435.372 66.828V75H433.68ZM449.947 67.548H451.621V75H449.947V67.548ZM449.821 64.866C449.821 64.59 449.923 64.368 450.127 64.2C450.343 64.02 450.577 63.93 450.829 63.93C451.081 63.93 451.309 64.02 451.513 64.2C451.717 64.368 451.819 64.59 451.819 64.866C451.819 65.142 451.717 65.37 451.513 65.55C451.309 65.718 451.081 65.802 450.829 65.802C450.577 65.802 450.343 65.718 450.127 65.55C449.923 65.37 449.821 65.142 449.821 64.866ZM456.047 67.548L456.155 68.988C456.407 68.46 456.797 68.04 457.325 67.728C457.853 67.416 458.465 67.26 459.161 67.26C459.857 67.26 460.427 67.47 460.871 67.89C461.327 68.298 461.567 68.832 461.591 69.492V75H459.899V70.068C459.875 69.672 459.749 69.348 459.521 69.096C459.305 68.844 458.963 68.712 458.495 68.7C457.847 68.7 457.301 68.964 456.857 69.492C456.425 70.008 456.209 70.68 456.209 71.508V75H454.535V67.548H456.047ZM469.46 62.04H471.494L474.842 71.508L477.11 65.622L475.724 62.04H477.452L481.07 71.31L484.274 62.04H486.146L481.016 75.576L477.974 67.818L474.644 75.594L469.46 62.04ZM489.764 75.18C489.056 75.18 488.414 75.03 487.838 74.73C487.274 74.43 486.824 73.992 486.488 73.416C486.164 72.828 486.002 72.114 486.002 71.274C486.002 70.434 486.17 69.714 486.506 69.114C486.854 68.514 487.316 68.052 487.892 67.728C488.48 67.404 489.122 67.242 489.818 67.242C490.49 67.242 491.06 67.386 491.528 67.674C491.996 67.962 492.362 68.31 492.626 68.718L492.752 67.548H494.3V75H492.626V73.776C492.482 73.968 492.272 74.172 491.996 74.388C491.732 74.604 491.408 74.79 491.024 74.946C490.652 75.102 490.232 75.18 489.764 75.18ZM490.214 73.794C490.826 73.794 491.348 73.626 491.78 73.29C492.212 72.942 492.494 72.474 492.626 71.886V70.41C492.482 69.894 492.182 69.468 491.726 69.132C491.27 68.796 490.748 68.628 490.16 68.628C489.704 68.628 489.29 68.736 488.918 68.952C488.546 69.168 488.246 69.468 488.018 69.852C487.802 70.236 487.694 70.68 487.694 71.184C487.694 71.676 487.808 72.12 488.036 72.516C488.264 72.9 488.57 73.212 488.954 73.452C489.338 73.68 489.758 73.794 490.214 73.794ZM497.215 61.05H498.889V75H497.215V61.05ZM501.803 75V61.05H503.477V70.464L507.329 67.368L508.355 68.268L505.601 70.5L508.715 75H506.753L504.449 71.436L503.477 72.21V75H501.803ZM418.447 86.272H420.139V89.566H422.173V90.898H420.139V97H418.447V90.898H417.079V89.566H418.447V86.272ZM423.565 93.202C423.565 92.458 423.739 91.786 424.087 91.186C424.447 90.586 424.939 90.112 425.563 89.764C426.187 89.416 426.901 89.242 427.705 89.242C428.509 89.242 429.217 89.416 429.829 89.764C430.441 90.112 430.915 90.586 431.251 91.186C431.599 91.786 431.773 92.458 431.773 93.202C431.773 93.946 431.599 94.618 431.251 95.218C430.915 95.818 430.435 96.298 429.811 96.658C429.199 97.006 428.485 97.18 427.669 97.18C426.877 97.18 426.169 97.018 425.545 96.694C424.933 96.37 424.447 95.908 424.087 95.308C423.739 94.708 423.565 94.006 423.565 93.202ZM425.257 93.22C425.257 93.7 425.359 94.138 425.563 94.534C425.779 94.918 426.067 95.224 426.427 95.452C426.787 95.68 427.195 95.794 427.651 95.794C428.119 95.794 428.533 95.68 428.893 95.452C429.253 95.224 429.535 94.918 429.739 94.534C429.955 94.138 430.063 93.7 430.063 93.22C430.063 92.74 429.955 92.308 429.739 91.924C429.535 91.528 429.253 91.216 428.893 90.988C428.533 90.748 428.119 90.628 427.651 90.628C427.195 90.628 426.781 90.748 426.409 90.988C426.049 91.228 425.767 91.546 425.563 91.942C425.359 92.326 425.257 92.752 425.257 93.22ZM443.497 83.986C444.793 83.986 445.813 84.256 446.557 84.796C447.313 85.324 447.691 86.146 447.691 87.262C447.691 87.958 447.535 88.558 447.223 89.062C446.911 89.566 446.479 89.962 445.927 90.25C446.647 90.526 447.229 90.928 447.673 91.456C448.117 91.984 448.339 92.614 448.339 93.346C448.339 94.21 448.129 94.912 447.709 95.452C447.301 95.992 446.767 96.388 446.107 96.64C445.447 96.88 444.745 97 444.001 97H440.131V83.986H443.497ZM443.857 89.674C444.565 89.674 445.081 89.476 445.405 89.08C445.729 88.672 445.891 88.186 445.891 87.622C445.891 86.938 445.681 86.44 445.261 86.128C444.841 85.816 444.277 85.66 443.569 85.66H441.877V89.674H443.857ZM443.929 95.38C444.649 95.38 445.261 95.218 445.765 94.894C446.281 94.558 446.539 94.048 446.539 93.364C446.539 92.86 446.401 92.464 446.125 92.176C445.849 91.888 445.501 91.684 445.081 91.564C444.673 91.432 444.247 91.366 443.803 91.366H441.877V95.38H443.929ZM453.237 97.288C452.553 97.288 451.989 97.084 451.545 96.676C451.101 96.256 450.873 95.716 450.861 95.056V89.548H452.535V94.462C452.559 94.87 452.679 95.2 452.895 95.452C453.111 95.704 453.447 95.836 453.903 95.848C454.311 95.848 454.683 95.728 455.019 95.488C455.355 95.236 455.619 94.9 455.811 94.48C456.015 94.048 456.117 93.562 456.117 93.022V89.548H457.791V97H456.279L456.153 95.596C455.913 96.088 455.529 96.496 455.001 96.82C454.485 97.132 453.897 97.288 453.237 97.288ZM462.811 97.144C462.271 97.144 461.749 97.054 461.245 96.874C460.753 96.682 460.345 96.4 460.021 96.028L460.741 95.056C461.041 95.356 461.359 95.584 461.695 95.74C462.031 95.884 462.355 95.956 462.667 95.956C463.027 95.956 463.339 95.884 463.603 95.74C463.879 95.596 464.017 95.35 464.017 95.002C464.017 94.738 463.927 94.528 463.747 94.372C463.579 94.216 463.357 94.096 463.081 94.012C462.817 93.916 462.541 93.82 462.253 93.724C460.981 93.316 460.345 92.59 460.345 91.546C460.345 91.162 460.441 90.796 460.633 90.448C460.837 90.1 461.131 89.818 461.515 89.602C461.911 89.386 462.397 89.278 462.973 89.278C463.489 89.278 463.951 89.344 464.359 89.476C464.767 89.608 465.151 89.818 465.511 90.106L464.845 91.132C464.629 90.916 464.371 90.754 464.071 90.646C463.783 90.526 463.519 90.46 463.279 90.448C462.955 90.448 462.667 90.526 462.415 90.682C462.175 90.838 462.055 91.054 462.055 91.33C462.043 91.582 462.121 91.786 462.289 91.942C462.457 92.086 462.673 92.206 462.937 92.302C463.213 92.398 463.489 92.488 463.765 92.572C464.305 92.752 464.761 92.998 465.133 93.31C465.517 93.622 465.709 94.078 465.709 94.678C465.709 95.35 465.469 95.932 464.989 96.424C464.509 96.904 463.783 97.144 462.811 97.144ZM480.894 86.308C480.45 86.08 479.964 85.882 479.436 85.714C478.908 85.546 478.398 85.462 477.906 85.462C477.198 85.462 476.634 85.624 476.214 85.948C475.806 86.272 475.602 86.71 475.602 87.262C475.602 87.658 475.734 87.994 475.998 88.27C476.274 88.546 476.622 88.792 477.042 89.008C477.474 89.212 477.93 89.404 478.41 89.584C478.95 89.788 479.472 90.034 479.976 90.322C480.48 90.61 480.894 91 481.218 91.492C481.554 91.972 481.722 92.62 481.722 93.436C481.722 94.132 481.548 94.762 481.2 95.326C480.852 95.878 480.36 96.322 479.724 96.658C479.088 96.982 478.332 97.144 477.456 97.144C476.592 97.144 475.788 97.006 475.044 96.73C474.312 96.454 473.688 96.136 473.172 95.776L473.946 94.39C474.366 94.714 474.882 94.996 475.494 95.236C476.118 95.476 476.712 95.596 477.276 95.596C477.696 95.596 478.104 95.524 478.5 95.38C478.908 95.236 479.244 95.008 479.508 94.696C479.772 94.372 479.904 93.958 479.904 93.454C479.904 93.022 479.784 92.656 479.544 92.356C479.304 92.056 478.992 91.804 478.608 91.6C478.236 91.384 477.828 91.192 477.384 91.024C476.976 90.88 476.562 90.712 476.142 90.52C475.722 90.328 475.332 90.1 474.972 89.836C474.624 89.56 474.342 89.224 474.126 88.828C473.91 88.432 473.802 87.952 473.802 87.388C473.802 86.704 473.964 86.11 474.288 85.606C474.624 85.09 475.08 84.688 475.656 84.4C476.232 84.1 476.898 83.938 477.654 83.914C478.482 83.914 479.214 84.016 479.85 84.22C480.498 84.424 481.068 84.67 481.56 84.958L480.894 86.308ZM484.945 86.272H486.637V89.566H488.671V90.898H486.637V97H484.945V90.898H483.577V89.566H484.945V86.272ZM490.063 93.202C490.063 92.458 490.237 91.786 490.585 91.186C490.945 90.586 491.437 90.112 492.061 89.764C492.685 89.416 493.399 89.242 494.203 89.242C495.007 89.242 495.715 89.416 496.327 89.764C496.939 90.112 497.413 90.586 497.749 91.186C498.097 91.786 498.271 92.458 498.271 93.202C498.271 93.946 498.097 94.618 497.749 95.218C497.413 95.818 496.933 96.298 496.309 96.658C495.697 97.006 494.983 97.18 494.167 97.18C493.375 97.18 492.667 97.018 492.043 96.694C491.431 96.37 490.945 95.908 490.585 95.308C490.237 94.708 490.063 94.006 490.063 93.202ZM491.755 93.22C491.755 93.7 491.857 94.138 492.061 94.534C492.277 94.918 492.565 95.224 492.925 95.452C493.285 95.68 493.693 95.794 494.149 95.794C494.617 95.794 495.031 95.68 495.391 95.452C495.751 95.224 496.033 94.918 496.237 94.534C496.453 94.138 496.561 93.7 496.561 93.22C496.561 92.74 496.453 92.308 496.237 91.924C496.033 91.528 495.751 91.216 495.391 90.988C495.031 90.748 494.617 90.628 494.149 90.628C493.693 90.628 493.279 90.748 492.907 90.988C492.547 91.228 492.265 91.546 492.061 91.942C491.857 92.326 491.755 92.752 491.755 93.22ZM504.93 97.18C504.39 97.18 503.868 97.066 503.364 96.838C502.872 96.598 502.482 96.28 502.194 95.884V100.582H500.52V89.422H501.978L502.122 90.682C502.482 90.262 502.926 89.92 503.454 89.656C503.994 89.38 504.588 89.242 505.236 89.242C505.944 89.242 506.574 89.41 507.126 89.746C507.69 90.082 508.134 90.55 508.458 91.15C508.782 91.75 508.944 92.452 508.944 93.256C508.944 94.06 508.764 94.756 508.404 95.344C508.056 95.932 507.576 96.388 506.964 96.712C506.364 97.024 505.686 97.18 504.93 97.18ZM504.606 95.83C505.074 95.83 505.506 95.722 505.902 95.506C506.31 95.278 506.634 94.972 506.874 94.588C507.114 94.204 507.234 93.766 507.234 93.274C507.234 92.77 507.12 92.326 506.892 91.942C506.664 91.546 506.358 91.24 505.974 91.024C505.602 90.796 505.182 90.682 504.714 90.682C504.066 90.682 503.52 90.862 503.076 91.222C502.632 91.582 502.338 92.05 502.194 92.626V93.886C502.29 94.45 502.56 94.918 503.004 95.29C503.46 95.65 503.994 95.83 504.606 95.83Z" fill="#14202B"/>
<path d="M453.846 4C450.969 4 448.615 6.475 448.615 9.5V16.375H446V20.5H448.615V35.625C448.615 36.3813 449.204 37 449.923 37H453.846L454.296 35.625H471.704L472.154 37H476.077C476.796 37 477.385 36.3813 477.385 35.625V20.5H480V16.375H477.385V9.5C477.385 6.475 475.031 4 472.154 4H453.846ZM453.846 6.75H472.154C473.615 6.75 474.769 7.96413 474.769 9.5H451.231C451.231 7.96413 452.385 6.75 453.846 6.75ZM451.231 12.25H461.692V21.875H451.231V12.25ZM464.308 12.25H474.769V21.875H464.308V12.25ZM451.231 24.625H474.769V32.875H451.231V24.625ZM452.538 27.375V30.125H457.769V27.375H452.538ZM468.231 27.375V30.125H473.462V27.375H468.231Z" fill="#14202B"/>
<path d="M611.549 75.144C610.913 75.144 610.301 75.03 609.713 74.802C609.137 74.562 608.669 74.268 608.309 73.92L609.245 72.552C609.485 72.828 609.803 73.05 610.199 73.218C610.595 73.386 610.997 73.47 611.405 73.47C612.065 73.47 612.605 73.26 613.025 72.84C613.457 72.42 613.673 71.868 613.673 71.184C613.673 70.488 613.475 69.906 613.079 69.438C612.695 68.97 612.119 68.736 611.351 68.736C610.931 68.736 610.541 68.796 610.181 68.916C609.821 69.024 609.449 69.192 609.065 69.42H609.047V63.156H614.717V64.83H610.559V67.422C610.943 67.314 611.345 67.26 611.765 67.26C612.569 67.26 613.247 67.44 613.799 67.8C614.351 68.148 614.765 68.616 615.041 69.204C615.329 69.792 615.473 70.434 615.473 71.13C615.473 71.886 615.299 72.57 614.951 73.182C614.615 73.782 614.153 74.262 613.565 74.622C612.977 74.97 612.305 75.144 611.549 75.144ZM624.128 75V61.572H624.146L630.554 70.662L637.052 61.572H637.07V75H635.342V66.594L630.554 73.362H630.518L625.82 66.828V75H624.128ZM640.396 67.548H642.07V75H640.396V67.548ZM640.27 64.866C640.27 64.59 640.372 64.368 640.576 64.2C640.792 64.02 641.026 63.93 641.278 63.93C641.53 63.93 641.758 64.02 641.962 64.2C642.166 64.368 642.268 64.59 642.268 64.866C642.268 65.142 642.166 65.37 641.962 65.55C641.758 65.718 641.53 65.802 641.278 65.802C641.026 65.802 640.792 65.718 640.576 65.55C640.372 65.37 640.27 65.142 640.27 64.866ZM646.495 67.548L646.603 68.988C646.855 68.46 647.245 68.04 647.773 67.728C648.301 67.416 648.913 67.26 649.609 67.26C650.305 67.26 650.875 67.47 651.319 67.89C651.775 68.298 652.015 68.832 652.039 69.492V75H650.347V70.068C650.323 69.672 650.197 69.348 649.969 69.096C649.753 68.844 649.411 68.712 648.943 68.7C648.295 68.7 647.749 68.964 647.305 69.492C646.873 70.008 646.657 70.68 646.657 71.508V75H644.983V67.548H646.495ZM661.042 75V61.986H664.606C665.89 61.986 666.982 62.184 667.882 62.58C668.782 62.964 669.508 63.48 670.06 64.128C670.624 64.776 671.032 65.496 671.284 66.288C671.548 67.068 671.68 67.854 671.68 68.646C671.68 69.618 671.506 70.5 671.158 71.292C670.81 72.072 670.336 72.738 669.736 73.29C669.136 73.842 668.446 74.268 667.666 74.568C666.898 74.856 666.088 75 665.236 75H661.042ZM662.788 73.308H664.894C665.842 73.308 666.688 73.122 667.432 72.75C668.188 72.378 668.782 71.838 669.214 71.13C669.646 70.41 669.862 69.54 669.862 68.52C669.862 67.464 669.634 66.576 669.178 65.856C668.734 65.136 668.14 64.59 667.396 64.218C666.664 63.846 665.884 63.66 665.056 63.66H662.788V73.308ZM675.692 67.548L675.818 69.294C676.022 68.874 676.304 68.514 676.664 68.214C677.024 67.902 677.396 67.668 677.78 67.512C678.176 67.344 678.518 67.254 678.806 67.242L678.734 68.916C678.17 68.892 677.672 69.006 677.24 69.258C676.808 69.498 676.472 69.828 676.232 70.248C675.992 70.668 675.872 71.118 675.872 71.598V75H674.198V67.548H675.692ZM680.966 67.548H682.64V75H680.966V67.548ZM680.84 64.866C680.84 64.59 680.942 64.368 681.146 64.2C681.362 64.02 681.596 63.93 681.848 63.93C682.1 63.93 682.328 64.02 682.532 64.2C682.736 64.368 682.838 64.59 682.838 64.866C682.838 65.142 682.736 65.37 682.532 65.55C682.328 65.718 682.1 65.802 681.848 65.802C681.596 65.802 681.362 65.718 681.146 65.55C680.942 65.37 680.84 65.142 680.84 64.866ZM688.578 75.216L684.438 67.548H686.436L688.686 72.318L690.774 67.548H692.646L688.668 75.216H688.578ZM697.728 75.18C696.888 75.18 696.156 75.012 695.532 74.676C694.92 74.328 694.446 73.854 694.11 73.254C693.786 72.654 693.624 71.976 693.624 71.22C693.624 70.488 693.804 69.822 694.164 69.222C694.536 68.61 695.034 68.13 695.658 67.782C696.294 67.422 696.996 67.242 697.764 67.242C698.748 67.242 699.564 67.53 700.212 68.106C700.86 68.682 701.304 69.474 701.544 70.482L695.64 72.552C695.844 72.924 696.132 73.218 696.504 73.434C696.876 73.638 697.296 73.74 697.764 73.74C698.1 73.74 698.418 73.68 698.718 73.56C699.018 73.44 699.306 73.284 699.582 73.092L700.356 74.334C699.972 74.586 699.546 74.79 699.078 74.946C698.622 75.102 698.172 75.18 697.728 75.18ZM695.28 71.13C695.268 71.274 695.274 71.412 695.298 71.544L699.636 69.942C699.468 69.582 699.222 69.264 698.898 68.988C698.586 68.712 698.166 68.574 697.638 68.574C696.954 68.574 696.39 68.814 695.946 69.294C695.502 69.774 695.28 70.386 695.28 71.13ZM617.637 97V91.042H616.359V89.53H617.637V86.398C617.637 85.318 617.883 84.49 618.375 83.914C618.867 83.338 619.587 83.05 620.535 83.05C620.775 83.05 621.045 83.086 621.345 83.158C621.657 83.23 621.933 83.344 622.173 83.5L621.453 84.724C621.345 84.616 621.225 84.544 621.093 84.508C620.961 84.46 620.829 84.436 620.697 84.436C620.265 84.436 619.923 84.586 619.671 84.886C619.431 85.186 619.311 85.696 619.311 86.416V89.53H621.687V91.042H619.311V97H617.637ZM625.357 89.548L625.483 91.294C625.687 90.874 625.969 90.514 626.329 90.214C626.689 89.902 627.061 89.668 627.445 89.512C627.841 89.344 628.183 89.254 628.471 89.242L628.399 90.916C627.835 90.892 627.337 91.006 626.905 91.258C626.473 91.498 626.137 91.828 625.897 92.248C625.657 92.668 625.537 93.118 625.537 93.598V97H623.863V89.548H625.357ZM629.666 93.202C629.666 92.458 629.84 91.786 630.188 91.186C630.548 90.586 631.04 90.112 631.664 89.764C632.288 89.416 633.002 89.242 633.806 89.242C634.61 89.242 635.318 89.416 635.93 89.764C636.542 90.112 637.016 90.586 637.352 91.186C637.7 91.786 637.874 92.458 637.874 93.202C637.874 93.946 637.7 94.618 637.352 95.218C637.016 95.818 636.536 96.298 635.912 96.658C635.3 97.006 634.586 97.18 633.77 97.18C632.978 97.18 632.27 97.018 631.646 96.694C631.034 96.37 630.548 95.908 630.188 95.308C629.84 94.708 629.666 94.006 629.666 93.202ZM631.358 93.22C631.358 93.7 631.46 94.138 631.664 94.534C631.88 94.918 632.168 95.224 632.528 95.452C632.888 95.68 633.296 95.794 633.752 95.794C634.22 95.794 634.634 95.68 634.994 95.452C635.354 95.224 635.636 94.918 635.84 94.534C636.056 94.138 636.164 93.7 636.164 93.22C636.164 92.74 636.056 92.308 635.84 91.924C635.636 91.528 635.354 91.216 634.994 90.988C634.634 90.748 634.22 90.628 633.752 90.628C633.296 90.628 632.882 90.748 632.51 90.988C632.15 91.228 631.868 91.546 631.664 91.942C631.46 92.326 631.358 92.752 631.358 93.22ZM641.635 89.548L641.743 90.97C642.031 90.43 642.421 90.01 642.913 89.71C643.417 89.398 643.993 89.242 644.641 89.242C645.253 89.242 645.763 89.386 646.171 89.674C646.591 89.962 646.849 90.352 646.945 90.844C647.245 90.34 647.635 89.95 648.115 89.674C648.607 89.386 649.129 89.242 649.681 89.242C650.401 89.242 650.971 89.452 651.391 89.872C651.823 90.292 652.051 90.826 652.075 91.474V97H650.401V92.104C650.377 91.72 650.275 91.402 650.095 91.15C649.927 90.886 649.633 90.742 649.213 90.718C648.769 90.718 648.379 90.85 648.043 91.114C647.707 91.366 647.443 91.702 647.251 92.122C647.059 92.542 646.957 92.986 646.945 93.454V97H645.253V92.104C645.241 91.72 645.139 91.402 644.947 91.15C644.767 90.886 644.461 90.742 644.029 90.718C643.597 90.718 643.213 90.85 642.877 91.114C642.541 91.366 642.277 91.702 642.085 92.122C641.893 92.542 641.797 92.992 641.797 93.472V97H640.123V89.548H641.635ZM660.132 83.986H668.772V85.66H665.28V97H663.534V85.66H660.132V83.986ZM668.567 93.202C668.567 92.458 668.741 91.786 669.089 91.186C669.449 90.586 669.941 90.112 670.565 89.764C671.189 89.416 671.903 89.242 672.707 89.242C673.511 89.242 674.219 89.416 674.831 89.764C675.443 90.112 675.917 90.586 676.253 91.186C676.601 91.786 676.775 92.458 676.775 93.202C676.775 93.946 676.601 94.618 676.253 95.218C675.917 95.818 675.437 96.298 674.813 96.658C674.201 97.006 673.487 97.18 672.671 97.18C671.879 97.18 671.171 97.018 670.547 96.694C669.935 96.37 669.449 95.908 669.089 95.308C668.741 94.708 668.567 94.006 668.567 93.202ZM670.259 93.22C670.259 93.7 670.361 94.138 670.565 94.534C670.781 94.918 671.069 95.224 671.429 95.452C671.789 95.68 672.197 95.794 672.653 95.794C673.121 95.794 673.535 95.68 673.895 95.452C674.255 95.224 674.537 94.918 674.741 94.534C674.957 94.138 675.065 93.7 675.065 93.22C675.065 92.74 674.957 92.308 674.741 91.924C674.537 91.528 674.255 91.216 673.895 90.988C673.535 90.748 673.121 90.628 672.653 90.628C672.197 90.628 671.783 90.748 671.411 90.988C671.051 91.228 670.769 91.546 670.565 91.942C670.361 92.326 670.259 92.752 670.259 93.22ZM683.583 89.548L685.599 94.192L687.489 89.548H689.145L685.707 97.45L683.313 92.338L681.135 97.45L677.679 89.548H679.335L681.315 94.066L682.719 90.826L682.125 89.548H683.583ZM692.453 89.548L692.561 90.988C692.813 90.46 693.203 90.04 693.731 89.728C694.259 89.416 694.871 89.26 695.567 89.26C696.263 89.26 696.833 89.47 697.277 89.89C697.733 90.298 697.973 90.832 697.997 91.492V97H696.305V92.068C696.281 91.672 696.155 91.348 695.927 91.096C695.711 90.844 695.369 90.712 694.901 90.7C694.253 90.7 693.707 90.964 693.263 91.492C692.831 92.008 692.615 92.68 692.615 93.508V97H690.941V89.548H692.453Z" fill="#14202B"/>
<path d="M652.586 28.8748H663.414C663.594 28.8748 663.742 28.7271 663.742 28.5467V25.1014C663.742 24.9209 663.594 24.7732 663.414 24.7732H661.773C661.593 24.7732 661.445 24.9209 661.445 25.1014V26.5779H654.555V25.1014C654.555 24.9209 654.407 24.7732 654.227 24.7732H652.586C652.405 24.7732 652.258 24.9209 652.258 25.1014V28.5467C652.258 28.7271 652.405 28.8748 652.586 28.8748ZM666.531 23.8299C666.531 24.265 666.704 24.6823 667.012 24.99C667.319 25.2977 667.737 25.4705 668.172 25.4705C668.607 25.4705 669.024 25.2977 669.332 24.99C669.64 24.6823 669.812 24.265 669.812 23.8299C669.812 23.3948 669.64 22.9775 669.332 22.6698C669.024 22.3621 668.607 22.1893 668.172 22.1893C667.737 22.1893 667.319 22.3621 667.012 22.6698C666.704 22.9775 666.531 23.3948 666.531 23.8299ZM676.334 16.9557L675.362 15.2576C675.318 15.1828 675.247 15.1282 675.163 15.106C675.079 15.0837 674.99 15.0954 674.915 15.1387L672.835 16.3527L669.624 7.48516C669.454 6.95603 669.121 6.49448 668.672 6.16715C668.223 5.83982 667.682 5.66365 667.126 5.66406H649.354C647.931 5.66406 646.667 6.58281 646.228 7.94043L643.169 16.3568L641.085 15.1428C641.01 15.0995 640.921 15.0878 640.837 15.1101C640.753 15.1323 640.682 15.1869 640.638 15.2617L639.666 16.9557C639.576 17.1115 639.629 17.3084 639.785 17.3986L642.262 18.8424L641.668 20.483C641.618 20.6143 641.594 20.7537 641.594 20.8932V35.1748C641.594 35.8187 642.078 36.3396 642.672 36.3396H645.445C645.95 36.3396 646.388 35.9582 646.495 35.425L646.811 33.8787H669.189L669.505 35.425C669.616 35.9582 670.05 36.3396 670.555 36.3396H673.327C673.922 36.3396 674.406 35.8187 674.406 35.1748V20.8932C674.406 20.7537 674.382 20.6143 674.332 20.483L673.738 18.8424L676.211 17.3986C676.285 17.3556 676.34 17.2851 676.363 17.2023C676.386 17.1195 676.376 17.0309 676.334 16.9557ZM671.453 21.2049V30.9256H644.547V21.2049L645.187 19.4412H670.813L671.453 21.2049ZM649.005 8.94531L649.026 8.89199L649.042 8.83867C649.087 8.70332 649.21 8.61309 649.354 8.61309H666.892L669.985 17.1443H646.023L649.005 8.94531ZM646.187 23.8299C646.187 24.265 646.36 24.6823 646.668 24.99C646.976 25.2977 647.393 25.4705 647.828 25.4705C648.263 25.4705 648.681 25.2977 648.988 24.99C649.296 24.6823 649.469 24.265 649.469 23.8299C649.469 23.3948 649.296 22.9775 648.988 22.6698C648.681 22.3621 648.263 22.1893 647.828 22.1893C647.393 22.1893 646.976 22.3621 646.668 22.6698C646.36 22.9775 646.187 23.3948 646.187 23.8299Z" fill="black"/>
<path d="M805.529 72.138V72.12L812.765 63.012H812.783V70.788H814.331V72.138H812.783V75H811.037V72.138H805.529ZM811.037 70.788V67.098L808.175 70.788H811.037ZM819.374 75.144C818.738 75.144 818.126 75.03 817.538 74.802C816.962 74.562 816.494 74.268 816.134 73.92L817.07 72.552C817.31 72.828 817.628 73.05 818.024 73.218C818.42 73.386 818.822 73.47 819.23 73.47C819.89 73.47 820.43 73.26 820.85 72.84C821.282 72.42 821.498 71.868 821.498 71.184C821.498 70.488 821.3 69.906 820.904 69.438C820.52 68.97 819.944 68.736 819.176 68.736C818.756 68.736 818.366 68.796 818.006 68.916C817.646 69.024 817.274 69.192 816.89 69.42H816.872V63.156H822.542V64.83H818.384V67.422C818.768 67.314 819.17 67.26 819.59 67.26C820.394 67.26 821.072 67.44 821.624 67.8C822.176 68.148 822.59 68.616 822.866 69.204C823.154 69.792 823.298 70.434 823.298 71.13C823.298 71.886 823.124 72.57 822.776 73.182C822.44 73.782 821.978 74.262 821.39 74.622C820.802 74.97 820.13 75.144 819.374 75.144ZM831.953 75V61.572H831.971L838.379 70.662L844.877 61.572H844.895V75H843.167V66.594L838.379 73.362H838.343L833.645 66.828V75H831.953ZM848.221 67.548H849.895V75H848.221V67.548ZM848.095 64.866C848.095 64.59 848.197 64.368 848.401 64.2C848.617 64.02 848.851 63.93 849.103 63.93C849.355 63.93 849.583 64.02 849.787 64.2C849.991 64.368 850.093 64.59 850.093 64.866C850.093 65.142 849.991 65.37 849.787 65.55C849.583 65.718 849.355 65.802 849.103 65.802C848.851 65.802 848.617 65.718 848.401 65.55C848.197 65.37 848.095 65.142 848.095 64.866ZM854.321 67.548L854.429 68.988C854.681 68.46 855.071 68.04 855.599 67.728C856.127 67.416 856.739 67.26 857.435 67.26C858.131 67.26 858.701 67.47 859.145 67.89C859.601 68.298 859.841 68.832 859.865 69.492V75H858.173V70.068C858.149 69.672 858.023 69.348 857.795 69.096C857.579 68.844 857.237 68.712 856.769 68.7C856.121 68.7 855.575 68.964 855.131 69.492C854.699 70.008 854.483 70.68 854.483 71.508V75H852.809V67.548H854.321ZM868.867 75V61.986H872.431C873.715 61.986 874.807 62.184 875.707 62.58C876.607 62.964 877.333 63.48 877.885 64.128C878.449 64.776 878.857 65.496 879.109 66.288C879.373 67.068 879.505 67.854 879.505 68.646C879.505 69.618 879.331 70.5 878.983 71.292C878.635 72.072 878.161 72.738 877.561 73.29C876.961 73.842 876.271 74.268 875.491 74.568C874.723 74.856 873.913 75 873.061 75H868.867ZM870.613 73.308H872.719C873.667 73.308 874.513 73.122 875.257 72.75C876.013 72.378 876.607 71.838 877.039 71.13C877.471 70.41 877.687 69.54 877.687 68.52C877.687 67.464 877.459 66.576 877.003 65.856C876.559 65.136 875.965 64.59 875.221 64.218C874.489 63.846 873.709 63.66 872.881 63.66H870.613V73.308ZM883.517 67.548L883.643 69.294C883.847 68.874 884.129 68.514 884.489 68.214C884.849 67.902 885.221 67.668 885.605 67.512C886.001 67.344 886.343 67.254 886.631 67.242L886.559 68.916C885.995 68.892 885.497 69.006 885.065 69.258C884.633 69.498 884.297 69.828 884.057 70.248C883.817 70.668 883.697 71.118 883.697 71.598V75H882.023V67.548H883.517ZM888.791 67.548H890.465V75H888.791V67.548ZM888.665 64.866C888.665 64.59 888.767 64.368 888.971 64.2C889.187 64.02 889.421 63.93 889.673 63.93C889.925 63.93 890.153 64.02 890.357 64.2C890.561 64.368 890.663 64.59 890.663 64.866C890.663 65.142 890.561 65.37 890.357 65.55C890.153 65.718 889.925 65.802 889.673 65.802C889.421 65.802 889.187 65.718 888.971 65.55C888.767 65.37 888.665 65.142 888.665 64.866ZM896.403 75.216L892.263 67.548H894.261L896.511 72.318L898.599 67.548H900.471L896.493 75.216H896.403ZM905.554 75.18C904.714 75.18 903.982 75.012 903.358 74.676C902.746 74.328 902.272 73.854 901.936 73.254C901.612 72.654 901.45 71.976 901.45 71.22C901.45 70.488 901.63 69.822 901.99 69.222C902.362 68.61 902.86 68.13 903.484 67.782C904.12 67.422 904.822 67.242 905.59 67.242C906.574 67.242 907.39 67.53 908.038 68.106C908.686 68.682 909.13 69.474 909.37 70.482L903.466 72.552C903.67 72.924 903.958 73.218 904.33 73.434C904.702 73.638 905.122 73.74 905.59 73.74C905.926 73.74 906.244 73.68 906.544 73.56C906.844 73.44 907.132 73.284 907.408 73.092L908.182 74.334C907.798 74.586 907.372 74.79 906.904 74.946C906.448 75.102 905.998 75.18 905.554 75.18ZM903.106 71.13C903.094 71.274 903.1 71.412 903.124 71.544L907.462 69.942C907.294 69.582 907.048 69.264 906.724 68.988C906.412 68.712 905.992 68.574 905.464 68.574C904.78 68.574 904.216 68.814 903.772 69.294C903.328 69.774 903.106 70.386 903.106 71.13ZM811.892 97V91.042H810.614V89.53H811.892V86.398C811.892 85.318 812.138 84.49 812.63 83.914C813.122 83.338 813.842 83.05 814.79 83.05C815.03 83.05 815.3 83.086 815.6 83.158C815.912 83.23 816.188 83.344 816.428 83.5L815.708 84.724C815.6 84.616 815.48 84.544 815.348 84.508C815.216 84.46 815.084 84.436 814.952 84.436C814.52 84.436 814.178 84.586 813.926 84.886C813.686 85.186 813.566 85.696 813.566 86.416V89.53H815.942V91.042H813.566V97H811.892ZM819.612 89.548L819.738 91.294C819.942 90.874 820.224 90.514 820.584 90.214C820.944 89.902 821.316 89.668 821.7 89.512C822.096 89.344 822.438 89.254 822.726 89.242L822.654 90.916C822.09 90.892 821.592 91.006 821.16 91.258C820.728 91.498 820.392 91.828 820.152 92.248C819.912 92.668 819.792 93.118 819.792 93.598V97H818.118V89.548H819.612ZM823.921 93.202C823.921 92.458 824.095 91.786 824.443 91.186C824.803 90.586 825.295 90.112 825.919 89.764C826.543 89.416 827.257 89.242 828.061 89.242C828.865 89.242 829.573 89.416 830.185 89.764C830.797 90.112 831.271 90.586 831.607 91.186C831.955 91.786 832.129 92.458 832.129 93.202C832.129 93.946 831.955 94.618 831.607 95.218C831.271 95.818 830.791 96.298 830.167 96.658C829.555 97.006 828.841 97.18 828.025 97.18C827.233 97.18 826.525 97.018 825.901 96.694C825.289 96.37 824.803 95.908 824.443 95.308C824.095 94.708 823.921 94.006 823.921 93.202ZM825.613 93.22C825.613 93.7 825.715 94.138 825.919 94.534C826.135 94.918 826.423 95.224 826.783 95.452C827.143 95.68 827.551 95.794 828.007 95.794C828.475 95.794 828.889 95.68 829.249 95.452C829.609 95.224 829.891 94.918 830.095 94.534C830.311 94.138 830.419 93.7 830.419 93.22C830.419 92.74 830.311 92.308 830.095 91.924C829.891 91.528 829.609 91.216 829.249 90.988C828.889 90.748 828.475 90.628 828.007 90.628C827.551 90.628 827.137 90.748 826.765 90.988C826.405 91.228 826.123 91.546 825.919 91.942C825.715 92.326 825.613 92.752 825.613 93.22ZM835.89 89.548L835.998 90.97C836.286 90.43 836.676 90.01 837.168 89.71C837.672 89.398 838.248 89.242 838.896 89.242C839.508 89.242 840.018 89.386 840.426 89.674C840.846 89.962 841.104 90.352 841.2 90.844C841.5 90.34 841.89 89.95 842.37 89.674C842.862 89.386 843.384 89.242 843.936 89.242C844.656 89.242 845.226 89.452 845.646 89.872C846.078 90.292 846.306 90.826 846.33 91.474V97H844.656V92.104C844.632 91.72 844.53 91.402 844.35 91.15C844.182 90.886 843.888 90.742 843.468 90.718C843.024 90.718 842.634 90.85 842.298 91.114C841.962 91.366 841.698 91.702 841.506 92.122C841.314 92.542 841.212 92.986 841.2 93.454V97H839.508V92.104C839.496 91.72 839.394 91.402 839.202 91.15C839.022 90.886 838.716 90.742 838.284 90.718C837.852 90.718 837.468 90.85 837.132 91.114C836.796 91.366 836.532 91.702 836.34 92.122C836.148 92.542 836.052 92.992 836.052 93.472V97H834.378V89.548H835.89ZM854.045 97L859.733 83.446H859.841L865.529 97H863.513L862.163 93.58H857.159L855.773 97H854.045ZM857.771 92.068H861.569L859.715 87.334L857.771 92.068ZM867.548 89.548H869.222V97H867.548V89.548ZM867.422 86.866C867.422 86.59 867.524 86.368 867.728 86.2C867.944 86.02 868.178 85.93 868.43 85.93C868.682 85.93 868.91 86.02 869.114 86.2C869.318 86.368 869.42 86.59 869.42 86.866C869.42 87.142 869.318 87.37 869.114 87.55C868.91 87.718 868.682 87.802 868.43 87.802C868.178 87.802 867.944 87.718 867.728 87.55C867.524 87.37 867.422 87.142 867.422 86.866ZM873.63 89.548L873.756 91.294C873.96 90.874 874.242 90.514 874.602 90.214C874.962 89.902 875.334 89.668 875.718 89.512C876.114 89.344 876.456 89.254 876.744 89.242L876.672 90.916C876.108 90.892 875.61 91.006 875.178 91.258C874.746 91.498 874.41 91.828 874.17 92.248C873.93 92.668 873.81 93.118 873.81 93.598V97H872.136V89.548H873.63ZM883.313 97.18C882.773 97.18 882.251 97.066 881.747 96.838C881.255 96.598 880.865 96.28 880.577 95.884V100.582H878.903V89.422H880.361L880.505 90.682C880.865 90.262 881.309 89.92 881.837 89.656C882.377 89.38 882.971 89.242 883.619 89.242C884.327 89.242 884.957 89.41 885.509 89.746C886.073 90.082 886.517 90.55 886.841 91.15C887.165 91.75 887.327 92.452 887.327 93.256C887.327 94.06 887.147 94.756 886.787 95.344C886.439 95.932 885.959 96.388 885.347 96.712C884.747 97.024 884.069 97.18 883.313 97.18ZM882.989 95.83C883.457 95.83 883.889 95.722 884.285 95.506C884.693 95.278 885.017 94.972 885.257 94.588C885.497 94.204 885.617 93.766 885.617 93.274C885.617 92.77 885.503 92.326 885.275 91.942C885.047 91.546 884.741 91.24 884.357 91.024C883.985 90.796 883.565 90.682 883.097 90.682C882.449 90.682 881.903 90.862 881.459 91.222C881.015 91.582 880.721 92.05 880.577 92.626V93.886C880.673 94.45 880.943 94.918 881.387 95.29C881.843 95.65 882.377 95.83 882.989 95.83ZM888.925 93.202C888.925 92.458 889.099 91.786 889.447 91.186C889.807 90.586 890.299 90.112 890.923 89.764C891.547 89.416 892.261 89.242 893.065 89.242C893.869 89.242 894.577 89.416 895.189 89.764C895.801 90.112 896.275 90.586 896.611 91.186C896.959 91.786 897.133 92.458 897.133 93.202C897.133 93.946 896.959 94.618 896.611 95.218C896.275 95.818 895.795 96.298 895.171 96.658C894.559 97.006 893.845 97.18 893.029 97.18C892.237 97.18 891.529 97.018 890.905 96.694C890.293 96.37 889.807 95.908 889.447 95.308C889.099 94.708 888.925 94.006 888.925 93.202ZM890.617 93.22C890.617 93.7 890.719 94.138 890.923 94.534C891.139 94.918 891.427 95.224 891.787 95.452C892.147 95.68 892.555 95.794 893.011 95.794C893.479 95.794 893.893 95.68 894.253 95.452C894.613 95.224 894.895 94.918 895.099 94.534C895.315 94.138 895.423 93.7 895.423 93.22C895.423 92.74 895.315 92.308 895.099 91.924C894.895 91.528 894.613 91.216 894.253 90.988C893.893 90.748 893.479 90.628 893.011 90.628C892.555 90.628 892.141 90.748 891.769 90.988C891.409 91.228 891.127 91.546 890.923 91.942C890.719 92.326 890.617 92.752 890.617 93.22ZM900.876 89.548L901.002 91.294C901.206 90.874 901.488 90.514 901.848 90.214C902.208 89.902 902.58 89.668 902.964 89.512C903.36 89.344 903.702 89.254 903.99 89.242L903.918 90.916C903.354 90.892 902.856 91.006 902.424 91.258C901.992 91.498 901.656 91.828 901.416 92.248C901.176 92.668 901.056 93.118 901.056 93.598V97H899.382V89.548H900.876ZM906.869 86.272H908.561V89.566H910.595V90.898H908.561V97H906.869V90.898H905.501V89.566H906.869V86.272Z" fill="#14202B"/>
<path d="M879.109 27.7103L880.202 22.2432L866.25 15.267V9.34258C866.251 8.07437 865.973 6.82141 865.435 5.67292C864.898 4.52444 864.113 3.5087 863.138 2.69805C862.538 2.1978 861.781 1.92383 861 1.92383C860.218 1.92383 859.462 2.1978 858.862 2.69805C857.886 3.5087 857.102 4.52444 856.564 5.67292C856.026 6.82141 855.748 8.07437 855.75 9.34258V15.267L841.797 22.2432L842.891 27.7103L855.785 26.0286L856.42 32.6915L850.5 35.2284V40.6876H871.5V35.2284L865.58 32.6913L866.214 26.0284L879.109 27.7103ZM868.875 36.9594V38.0626H853.125V36.9594L859.215 34.3493L858.375 25.5315V23.0434L844.984 24.79L844.765 23.6945L858.375 16.8895V9.34258C858.374 8.45932 858.567 7.58668 858.942 6.78682C859.317 5.98695 859.863 5.27953 860.542 4.71495C860.671 4.60786 860.833 4.54921 861 4.54921C861.167 4.54921 861.329 4.60786 861.457 4.71495C862.136 5.27953 862.683 5.98695 863.058 6.78682C863.432 7.58668 863.626 8.45932 863.625 9.34258V16.8895L877.235 23.6945L877.016 24.79L863.625 23.0434V25.5315L862.785 34.3493L868.875 36.9594Z" fill="black"/>
<path d="M1020.94 61.986H1022.68V73.308H1029.31V75H1020.94V61.986ZM1034.83 75.18C1034.13 75.18 1033.48 75.03 1032.91 74.73C1032.34 74.43 1031.89 73.992 1031.56 73.416C1031.23 72.828 1031.07 72.114 1031.07 71.274C1031.07 70.434 1031.24 69.714 1031.58 69.114C1031.92 68.514 1032.39 68.052 1032.96 67.728C1033.55 67.404 1034.19 67.242 1034.89 67.242C1035.56 67.242 1036.13 67.386 1036.6 67.674C1037.07 67.962 1037.43 68.31 1037.7 68.718L1037.82 67.548H1039.37V75H1037.7V73.776C1037.55 73.968 1037.34 74.172 1037.07 74.388C1036.8 74.604 1036.48 74.79 1036.09 74.946C1035.72 75.102 1035.3 75.18 1034.83 75.18ZM1035.28 73.794C1035.9 73.794 1036.42 73.626 1036.85 73.29C1037.28 72.942 1037.56 72.474 1037.7 71.886V70.41C1037.55 69.894 1037.25 69.468 1036.8 69.132C1036.34 68.796 1035.82 68.628 1035.23 68.628C1034.77 68.628 1034.36 68.736 1033.99 68.952C1033.62 69.168 1033.32 69.468 1033.09 69.852C1032.87 70.236 1032.76 70.68 1032.76 71.184C1032.76 71.676 1032.88 72.12 1033.11 72.516C1033.33 72.9 1033.64 73.212 1034.02 73.452C1034.41 73.68 1034.83 73.794 1035.28 73.794ZM1043 64.272H1044.7V67.566H1046.73V68.898H1044.7V75H1043V68.898H1041.64V67.566H1043V64.272ZM1052.23 75.18C1051.39 75.18 1050.65 75.012 1050.03 74.676C1049.42 74.328 1048.94 73.854 1048.61 73.254C1048.28 72.654 1048.12 71.976 1048.12 71.22C1048.12 70.488 1048.3 69.822 1048.66 69.222C1049.03 68.61 1049.53 68.13 1050.16 67.782C1050.79 67.422 1051.49 67.242 1052.26 67.242C1053.25 67.242 1054.06 67.53 1054.71 68.106C1055.36 68.682 1055.8 69.474 1056.04 70.482L1050.14 72.552C1050.34 72.924 1050.63 73.218 1051 73.434C1051.37 73.638 1051.79 73.74 1052.26 73.74C1052.6 73.74 1052.92 73.68 1053.22 73.56C1053.52 73.44 1053.8 73.284 1054.08 73.092L1054.85 74.334C1054.47 74.586 1054.04 74.79 1053.58 74.946C1053.12 75.102 1052.67 75.18 1052.23 75.18ZM1049.78 71.13C1049.77 71.274 1049.77 71.412 1049.8 71.544L1054.13 69.942C1053.97 69.582 1053.72 69.264 1053.4 68.988C1053.08 68.712 1052.66 68.574 1052.14 68.574C1051.45 68.574 1050.89 68.814 1050.44 69.294C1050 69.774 1049.78 70.386 1049.78 71.13ZM1075.52 75.414L1065.96 65.73L1066 75H1064.23V61.59H1064.32L1073.86 71.418L1073.83 61.986H1075.57V75.414H1075.52ZM1078.9 67.548H1080.57V75H1078.9V67.548ZM1078.77 64.866C1078.77 64.59 1078.88 64.368 1079.08 64.2C1079.3 64.02 1079.53 63.93 1079.78 63.93C1080.03 63.93 1080.26 64.02 1080.47 64.2C1080.67 64.368 1080.77 64.59 1080.77 64.866C1080.77 65.142 1080.67 65.37 1080.47 65.55C1080.26 65.718 1080.03 65.802 1079.78 65.802C1079.53 65.802 1079.3 65.718 1079.08 65.55C1078.88 65.37 1078.77 65.142 1078.77 64.866ZM1087.09 78.69C1086.26 78.69 1085.57 78.546 1085.02 78.258C1084.47 77.982 1083.96 77.628 1083.49 77.196L1084.48 76.044C1084.86 76.428 1085.26 76.716 1085.67 76.908C1086.07 77.112 1086.54 77.214 1087.05 77.214C1087.89 77.214 1088.53 77.01 1088.98 76.602C1089.42 76.206 1089.65 75.678 1089.66 75.018V73.65C1089.41 74.094 1089.02 74.46 1088.49 74.748C1087.96 75.036 1087.34 75.18 1086.62 75.18C1085.92 75.18 1085.29 75.006 1084.71 74.658C1084.15 74.31 1083.69 73.842 1083.34 73.254C1083.01 72.654 1082.84 71.982 1082.84 71.238C1082.84 70.458 1083.02 69.768 1083.38 69.168C1083.74 68.568 1084.21 68.1 1084.8 67.764C1085.39 67.416 1086.03 67.242 1086.73 67.242C1087.38 67.242 1087.96 67.368 1088.49 67.62C1089.02 67.872 1089.42 68.196 1089.68 68.592L1089.82 67.548H1091.35V75.054C1091.35 75.726 1091.18 76.338 1090.83 76.89C1090.48 77.442 1089.99 77.88 1089.36 78.204C1088.72 78.528 1087.96 78.69 1087.09 78.69ZM1084.53 71.184C1084.53 71.676 1084.65 72.12 1084.87 72.516C1085.1 72.9 1085.41 73.212 1085.79 73.452C1086.19 73.68 1086.63 73.794 1087.11 73.794C1087.75 73.794 1088.31 73.62 1088.76 73.272C1089.23 72.912 1089.53 72.456 1089.66 71.904V70.428C1089.51 69.9 1089.19 69.468 1088.73 69.132C1088.26 68.796 1087.72 68.628 1087.11 68.628C1086.61 68.628 1086.17 68.736 1085.77 68.952C1085.39 69.168 1085.08 69.468 1084.86 69.852C1084.64 70.236 1084.53 70.68 1084.53 71.184ZM1094.26 75V61.05H1095.9V68.898C1096.16 68.418 1096.55 68.028 1097.07 67.728C1097.59 67.416 1098.19 67.26 1098.89 67.26C1099.58 67.26 1100.15 67.47 1100.6 67.89C1101.05 68.298 1101.29 68.832 1101.32 69.492V75H1099.63V70.068C1099.6 69.672 1099.48 69.348 1099.25 69.096C1099.03 68.844 1098.69 68.712 1098.22 68.7C1097.79 68.7 1097.4 68.826 1097.05 69.078C1096.72 69.318 1096.45 69.648 1096.24 70.068C1096.04 70.488 1095.94 70.968 1095.94 71.508V75H1094.26ZM1104.93 64.272H1106.62V67.566H1108.66V68.898H1106.62V75H1104.93V68.898H1103.56V67.566H1104.93V64.272ZM1022.07 86.308C1021.63 86.08 1021.14 85.882 1020.61 85.714C1020.08 85.546 1019.57 85.462 1019.08 85.462C1018.37 85.462 1017.81 85.624 1017.39 85.948C1016.98 86.272 1016.78 86.71 1016.78 87.262C1016.78 87.658 1016.91 87.994 1017.17 88.27C1017.45 88.546 1017.8 88.792 1018.22 89.008C1018.65 89.212 1019.11 89.404 1019.59 89.584C1020.13 89.788 1020.65 90.034 1021.15 90.322C1021.66 90.61 1022.07 91 1022.39 91.492C1022.73 91.972 1022.9 92.62 1022.9 93.436C1022.9 94.132 1022.72 94.762 1022.38 95.326C1022.03 95.878 1021.54 96.322 1020.9 96.658C1020.26 96.982 1019.51 97.144 1018.63 97.144C1017.77 97.144 1016.96 97.006 1016.22 96.73C1015.49 96.454 1014.86 96.136 1014.35 95.776L1015.12 94.39C1015.54 94.714 1016.06 94.996 1016.67 95.236C1017.29 95.476 1017.89 95.596 1018.45 95.596C1018.87 95.596 1019.28 95.524 1019.68 95.38C1020.08 95.236 1020.42 95.008 1020.68 94.696C1020.95 94.372 1021.08 93.958 1021.08 93.454C1021.08 93.022 1020.96 92.656 1020.72 92.356C1020.48 92.056 1020.17 91.804 1019.78 91.6C1019.41 91.384 1019 91.192 1018.56 91.024C1018.15 90.88 1017.74 90.712 1017.32 90.52C1016.9 90.328 1016.51 90.1 1016.15 89.836C1015.8 89.56 1015.52 89.224 1015.3 88.828C1015.09 88.432 1014.98 87.952 1014.98 87.388C1014.98 86.704 1015.14 86.11 1015.46 85.606C1015.8 85.09 1016.26 84.688 1016.83 84.4C1017.41 84.1 1018.07 83.938 1018.83 83.914C1019.66 83.914 1020.39 84.016 1021.03 84.22C1021.67 84.424 1022.24 84.67 1022.74 84.958L1022.07 86.308ZM1028.86 97.18C1028.02 97.18 1027.28 97.012 1026.66 96.676C1026.05 96.328 1025.57 95.854 1025.24 95.254C1024.91 94.654 1024.75 93.976 1024.75 93.22C1024.75 92.488 1024.93 91.822 1025.29 91.222C1025.66 90.61 1026.16 90.13 1026.79 89.782C1027.42 89.422 1028.12 89.242 1028.89 89.242C1029.88 89.242 1030.69 89.53 1031.34 90.106C1031.99 90.682 1032.43 91.474 1032.67 92.482L1026.77 94.552C1026.97 94.924 1027.26 95.218 1027.63 95.434C1028 95.638 1028.42 95.74 1028.89 95.74C1029.23 95.74 1029.55 95.68 1029.85 95.56C1030.15 95.44 1030.43 95.284 1030.71 95.092L1031.48 96.334C1031.1 96.586 1030.67 96.79 1030.21 96.946C1029.75 97.102 1029.3 97.18 1028.86 97.18ZM1026.41 93.13C1026.4 93.274 1026.4 93.412 1026.43 93.544L1030.76 91.942C1030.6 91.582 1030.35 91.264 1030.03 90.988C1029.71 90.712 1029.29 90.574 1028.77 90.574C1028.08 90.574 1027.52 90.814 1027.07 91.294C1026.63 91.774 1026.41 92.386 1026.41 93.13ZM1034.75 83.05H1036.43V97H1034.75V83.05ZM1039.95 97V91.042H1038.67V89.53H1039.95V86.398C1039.95 85.318 1040.2 84.49 1040.69 83.914C1041.18 83.338 1041.9 83.05 1042.85 83.05C1043.09 83.05 1043.36 83.086 1043.66 83.158C1043.97 83.23 1044.25 83.344 1044.49 83.5L1043.77 84.724C1043.66 84.616 1043.54 84.544 1043.41 84.508C1043.28 84.46 1043.14 84.436 1043.01 84.436C1042.58 84.436 1042.24 84.586 1041.99 84.886C1041.75 85.186 1041.63 85.696 1041.63 86.416V89.53H1044V91.042H1041.63V97H1039.95ZM1061.85 96.028C1061.63 96.172 1061.34 96.334 1060.96 96.514C1060.59 96.694 1060.15 96.85 1059.65 96.982C1059.16 97.102 1058.62 97.156 1058.03 97.144C1057.01 97.132 1056.1 96.952 1055.29 96.604C1054.49 96.256 1053.8 95.782 1053.22 95.182C1052.66 94.57 1052.23 93.874 1051.93 93.094C1051.63 92.314 1051.48 91.48 1051.48 90.592C1051.48 89.62 1051.63 88.726 1051.95 87.91C1052.27 87.082 1052.72 86.368 1053.3 85.768C1053.87 85.156 1054.55 84.682 1055.33 84.346C1056.12 84.01 1056.99 83.842 1057.92 83.842C1058.7 83.842 1059.41 83.95 1060.05 84.166C1060.68 84.37 1061.23 84.61 1061.68 84.886L1060.98 86.524C1060.62 86.284 1060.18 86.056 1059.67 85.84C1059.15 85.624 1058.59 85.516 1057.98 85.516C1057.34 85.516 1056.74 85.648 1056.18 85.912C1055.61 86.164 1055.11 86.518 1054.68 86.974C1054.25 87.418 1053.91 87.946 1053.66 88.558C1053.42 89.158 1053.3 89.806 1053.3 90.502C1053.3 91.438 1053.49 92.284 1053.87 93.04C1054.27 93.784 1054.82 94.372 1055.53 94.804C1056.25 95.236 1057.09 95.452 1058.05 95.452C1058.72 95.452 1059.31 95.356 1059.81 95.164C1060.33 94.96 1060.75 94.726 1061.09 94.462L1061.85 96.028ZM1064.37 97V83.05H1066.01V90.898C1066.27 90.418 1066.66 90.028 1067.18 89.728C1067.7 89.416 1068.3 89.26 1069 89.26C1069.69 89.26 1070.26 89.47 1070.71 89.89C1071.16 90.298 1071.4 90.832 1071.43 91.492V97H1069.74V92.068C1069.71 91.672 1069.59 91.348 1069.36 91.096C1069.14 90.844 1068.8 90.712 1068.33 90.7C1067.9 90.7 1067.51 90.826 1067.16 91.078C1066.83 91.318 1066.56 91.648 1066.35 92.068C1066.15 92.488 1066.05 92.968 1066.05 93.508V97H1064.37ZM1077.78 97.18C1076.94 97.18 1076.2 97.012 1075.58 96.676C1074.97 96.328 1074.49 95.854 1074.16 95.254C1073.83 94.654 1073.67 93.976 1073.67 93.22C1073.67 92.488 1073.85 91.822 1074.21 91.222C1074.58 90.61 1075.08 90.13 1075.71 89.782C1076.34 89.422 1077.04 89.242 1077.81 89.242C1078.8 89.242 1079.61 89.53 1080.26 90.106C1080.91 90.682 1081.35 91.474 1081.59 92.482L1075.69 94.552C1075.89 94.924 1076.18 95.218 1076.55 95.434C1076.92 95.638 1077.34 95.74 1077.81 95.74C1078.15 95.74 1078.47 95.68 1078.77 95.56C1079.07 95.44 1079.35 95.284 1079.63 95.092L1080.4 96.334C1080.02 96.586 1079.59 96.79 1079.13 96.946C1078.67 97.102 1078.22 97.18 1077.78 97.18ZM1075.33 93.13C1075.32 93.274 1075.32 93.412 1075.35 93.544L1079.68 91.942C1079.52 91.582 1079.27 91.264 1078.95 90.988C1078.63 90.712 1078.21 90.574 1077.69 90.574C1077 90.574 1076.44 90.814 1075.99 91.294C1075.55 91.774 1075.33 92.386 1075.33 93.13ZM1089.72 96.298C1089.38 96.574 1088.98 96.79 1088.51 96.946C1088.05 97.102 1087.58 97.18 1087.11 97.18C1086.31 97.18 1085.59 97.018 1084.97 96.694C1084.36 96.37 1083.88 95.914 1083.53 95.326C1083.19 94.738 1083.02 94.048 1083.02 93.256C1083.02 92.464 1083.2 91.78 1083.56 91.204C1083.94 90.616 1084.42 90.16 1085 89.836C1085.6 89.512 1086.25 89.35 1086.95 89.35C1087.55 89.35 1088.08 89.434 1088.55 89.602C1089.02 89.77 1089.43 89.998 1089.77 90.286L1088.93 91.384C1088.71 91.228 1088.45 91.084 1088.14 90.952C1087.82 90.808 1087.48 90.736 1087.09 90.736C1086.65 90.736 1086.25 90.85 1085.89 91.078C1085.53 91.294 1085.24 91.594 1085.02 91.978C1084.81 92.35 1084.7 92.776 1084.7 93.256C1084.7 93.724 1084.81 94.15 1085.02 94.534C1085.24 94.918 1085.54 95.224 1085.92 95.452C1086.31 95.68 1086.75 95.794 1087.25 95.794C1087.57 95.794 1087.85 95.746 1088.12 95.65C1088.39 95.554 1088.64 95.422 1088.86 95.254L1089.72 96.298ZM1091.88 97V83.05H1093.55V92.464L1097.41 89.368L1098.43 90.268L1095.68 92.5L1098.79 97H1096.83L1094.53 93.436L1093.55 94.21V97H1091.88ZM1106.97 83.986H1108.72V97H1106.97V83.986ZM1113.55 89.548L1113.66 90.988C1113.91 90.46 1114.3 90.04 1114.83 89.728C1115.36 89.416 1115.97 89.26 1116.67 89.26C1117.36 89.26 1117.93 89.47 1118.38 89.89C1118.83 90.298 1119.07 90.832 1119.1 91.492V97H1117.41V92.068C1117.38 91.672 1117.26 91.348 1117.03 91.096C1116.81 90.844 1116.47 90.712 1116 90.7C1115.35 90.7 1114.81 90.964 1114.36 91.492C1113.93 92.008 1113.72 92.68 1113.72 93.508V97H1112.04V89.548H1113.55Z" fill="#14202B"/>
<path d="M1067 9.1875C1067 8.8394 1066.86 8.50556 1066.62 8.25942C1066.37 8.01328 1066.04 7.875 1065.69 7.875C1065.34 7.875 1065.01 8.01328 1064.76 8.25942C1064.51 8.50556 1064.38 8.8394 1064.38 9.1875V23.625C1064.38 23.8563 1064.44 24.0836 1064.55 24.2836C1064.67 24.4837 1064.84 24.6495 1065.04 24.7642L1074.22 30.0142C1074.53 30.1772 1074.88 30.2157 1075.21 30.1217C1075.54 30.0276 1075.82 29.8083 1075.99 29.5108C1076.16 29.2132 1076.2 28.8609 1076.12 28.5293C1076.03 28.1976 1075.82 27.9128 1075.53 27.7358L1067 22.8638V9.1875Z" fill="#14202B"/>
<path d="M1067 42C1072.57 42 1077.91 39.7875 1081.85 35.8492C1085.79 31.911 1088 26.5695 1088 21C1088 15.4305 1085.79 10.089 1081.85 6.15076C1077.91 2.21249 1072.57 0 1067 0C1061.43 0 1056.09 2.21249 1052.15 6.15076C1048.21 10.089 1046 15.4305 1046 21C1046 26.5695 1048.21 31.911 1052.15 35.8492C1056.09 39.7875 1061.43 42 1067 42ZM1085.38 21C1085.38 25.8734 1083.44 30.5471 1079.99 33.9931C1076.55 37.4391 1071.87 39.375 1067 39.375C1062.13 39.375 1057.45 37.4391 1054.01 33.9931C1050.56 30.5471 1048.62 25.8734 1048.62 21C1048.62 16.1266 1050.56 11.4529 1054.01 8.00691C1057.45 4.56093 1062.13 2.625 1067 2.625C1071.87 2.625 1076.55 4.56093 1079.99 8.00691C1083.44 11.4529 1085.38 16.1266 1085.38 21Z" fill="#14202B"/>
</svg>
