<svg width="25" height="25" viewBox="0 0 25 25" fill="none" xmlns="http://www.w3.org/2000/svg">
<path d="M20.9045 14.8122C20.3956 14.2746 19.7666 13.9765 19.0871 13.9562C18.4131 13.9362 17.7546 14.1908 17.1785 14.6961L15.3763 16.272C15.237 16.1955 15.0974 16.1241 14.9633 16.0528C14.7701 15.9539 14.5876 15.8606 14.4327 15.7628C12.8529 14.7432 11.4339 13.4335 10.0912 11.7536C9.44173 10.9169 9.01128 10.2161 8.70731 9.50862C9.17347 9.1345 9.60742 8.74391 10.0297 8.36848C10.1895 8.22838 10.3494 8.08312 10.5091 7.94302C11.7069 6.8923 11.768 5.48698 10.6643 4.36774L9.22965 2.91273C9.06674 2.7475 8.89857 2.57695 8.74136 2.40673C8.42649 2.07661 8.09563 1.73567 7.75291 1.41507C7.24292 0.903256 6.61873 0.620837 5.95021 0.600936C5.2817 0.581034 4.62366 0.825282 4.05415 1.30496C4.04845 1.30997 4.04845 1.30997 4.04275 1.31497L2.10272 3.03165C1.37261 3.67209 0.937594 4.46617 0.809313 5.39872C0.612293 6.90345 1.02252 8.32279 1.34424 9.25321C2.13391 11.5374 3.36912 13.6694 5.2499 15.9706C7.53265 18.7442 10.3278 20.9639 13.5612 22.5656C14.7971 23.1663 16.4504 23.8829 18.325 24.0525C18.4398 24.0611 18.5602 24.0698 18.6698 24.0731C19.9356 24.1108 21.0172 23.7136 21.8871 22.8859C21.8931 22.8757 21.9043 22.8709 21.9102 22.8607C22.2093 22.5437 22.5508 22.259 22.9097 21.9541C23.1546 21.7493 23.4053 21.5343 23.651 21.3088C24.2166 20.7928 24.5285 20.1813 24.5561 19.5458C24.5839 18.9052 24.3202 18.2817 23.7892 17.7486L20.9045 14.8122ZM22.6299 20.311C22.6244 20.3109 22.6242 20.316 22.6299 20.311C22.4068 20.5217 22.1791 20.7115 21.934 20.9215C21.564 21.2312 21.1877 21.5562 20.8316 21.9233C20.2539 22.4648 19.5904 22.7089 18.7356 22.6834C18.6534 22.681 18.5657 22.6784 18.4837 22.6708C16.8606 22.5242 15.3742 21.8798 14.2621 21.3345C11.2221 19.8266 8.586 17.7357 6.43351 15.1212C4.65716 12.9421 3.49305 10.9416 2.75716 8.80899C2.30342 7.50733 2.16063 6.49947 2.28388 5.55643C2.36493 4.95357 2.63327 4.45975 3.1067 4.04446L5.05176 2.33828C5.33059 2.10861 5.62114 1.98792 5.9006 1.99624C6.24581 2.00652 6.51675 2.21117 6.68492 2.38172C6.69018 2.38705 6.69543 2.39238 6.70069 2.39771C7.02216 2.70216 7.32674 3.01645 7.64686 3.35189C7.80955 3.52228 7.97772 3.69283 8.14567 3.86855L9.58036 5.32357C10.1374 5.88852 10.1154 6.39484 9.51082 6.92521C9.3454 7.07031 9.18547 7.21557 9.02027 7.35551C8.54069 7.78613 8.08437 8.18641 7.59014 8.57521C7.57874 8.58522 7.56755 8.59006 7.56162 8.60023C7.07108 9.03053 7.13991 9.46713 7.22576 9.76457C7.23056 9.78023 7.23537 9.79589 7.24018 9.81155C7.59064 10.7118 8.10226 11.5651 8.89187 12.587L8.89712 12.5924C10.3332 14.394 11.8684 15.8107 13.5818 16.9118C13.8006 17.0529 14.026 17.1682 14.2407 17.2781C14.434 17.3769 14.6165 17.4703 14.7713 17.568C14.7928 17.579 14.814 17.5952 14.8355 17.6062C15.018 17.6995 15.1916 17.7461 15.3724 17.7515C15.8272 17.765 16.1238 17.5048 16.2208 17.4198L18.1715 15.7086C18.3655 15.5385 18.6706 15.3355 19.0158 15.3457C19.3555 15.3558 19.6262 15.5657 19.7885 15.7464C19.7937 15.7517 19.7937 15.7517 19.799 15.757L22.6947 18.6937C23.2362 19.2375 23.2126 19.78 22.6299 20.311Z" fill="#14202B"/>
</svg>
