<svg width="375" height="77" viewBox="0 0 375 77" fill="none" xmlns="http://www.w3.org/2000/svg">
<path d="M361.814 34.0231C361.516 33.8099 361.487 33.5011 361.488 33.1692C361.495 31.1618 361.488 29.1545 361.502 27.1459C361.502 26.224 361.568 26.1434 362.497 26.042C362.926 25.9947 363.13 25.7827 363.133 25.3897C363.147 23.2003 363.15 21.0108 363.153 18.8214C363.153 18.4572 362.944 18.2728 362.592 18.2717C360.737 18.2671 358.879 18.2671 357.018 18.2717C356.66 18.2717 356.472 18.4757 356.472 18.8352C356.472 21.0254 356.472 23.2149 356.472 25.4036C356.472 25.8265 356.713 25.9936 357.122 26.0351C358.037 26.1295 358.124 26.2194 358.129 27.1298C358.14 29.1153 358.129 31.0996 358.129 33.0851C358.129 33.4366 358.099 33.7708 357.81 34.022H357.121C356.799 33.2856 356.901 32.4963 356.868 31.7311C356.816 30.5016 356.844 29.2674 356.856 28.0355C356.856 27.6069 356.766 27.3153 356.305 27.1425C355.995 27.0416 355.725 26.8463 355.533 26.5841C355.342 26.322 355.238 26.0065 355.237 25.6824C355.155 23.289 355.101 20.8933 355.266 18.5033C355.326 17.6252 355.978 17.0237 356.86 17.0053C358.81 16.973 360.759 16.9749 362.709 17.011C363.691 17.0306 364.285 17.6333 364.345 18.5978C364.476 20.9436 364.481 23.2946 364.361 25.641C364.326 26.4073 363.923 26.8936 363.262 27.139C362.83 27.3038 362.75 27.5377 362.748 27.9537C362.748 29.6822 362.703 31.42 362.685 33.1531C362.685 33.4873 362.632 33.7892 362.359 34.0139L361.814 34.0231Z" fill="#14202B"/>
<path d="M343.478 34.0231C343.217 33.6993 343.184 33.3133 343.185 32.9203C343.185 31.0259 343.185 29.1303 343.203 27.2358C343.215 26.2356 343.275 26.1779 344.274 26.0374C344.641 25.9855 344.819 25.8138 344.821 25.4669C344.835 23.2521 344.844 21.0377 344.849 18.8237C344.849 18.4238 344.595 18.2636 344.218 18.2636C342.428 18.2636 340.637 18.2636 338.846 18.2636C338.364 18.2636 338.15 18.5137 338.15 18.9954C338.157 21.0965 338.157 23.1972 338.15 25.2975C338.15 25.7769 338.357 26.0385 338.846 26.027C339.535 26.0109 339.837 26.3358 339.863 27.0134C339.94 29.0684 339.938 31.1223 339.857 33.175C339.845 33.4688 339.807 33.7696 339.625 34.022H338.929C338.63 33.742 338.628 33.3755 338.627 33.0068C338.622 31.3166 338.617 29.6265 338.612 27.9364C338.612 27.6345 338.633 27.3211 338.246 27.2197C337.674 27.0687 337.319 26.6585 337 26.2021V18.115C337.451 17.2876 338.139 16.9476 339.093 16.973C340.789 17.0168 342.488 16.973 344.184 16.9949C345.483 17.0099 346.113 17.6471 346.122 18.9539C346.136 21.0523 346.115 23.1507 346.131 25.2503C346.138 26.1975 345.797 26.8947 344.856 27.2093C344.444 27.3476 344.47 27.6702 344.468 27.9871C344.462 29.6073 344.457 31.2271 344.452 32.8466C344.452 33.2603 344.435 33.6717 344.165 34.0197L343.478 34.0231Z" fill="#14202B"/>
<path d="M350.369 34.0232C350.005 33.711 350.063 33.2834 350.063 32.8767C350.063 23.011 350.063 13.1454 350.063 3.27977C350.063 2.50424 350.063 1.72756 350.077 0.950877C350.084 0.534879 350.077 0.0289989 350.642 0.0289989C351.255 0.0174754 351.24 0.531422 351.247 0.977381C351.378 8.97006 351.349 16.9616 351.333 24.9543C351.333 27.6934 351.275 30.4325 351.248 33.1728C351.248 33.4736 351.224 33.7651 351.062 34.029L350.369 34.0232Z" fill="#14202B"/>
<path d="M354.625 3.77985C354.71 3.18755 355.069 2.6978 355.573 2.31176C356.399 1.68769 357.384 1.30498 358.417 1.20666C358.834 1.16057 359.17 1.07299 359.206 0.54752C359.207 0.472045 359.223 0.397581 359.254 0.328676C359.285 0.25977 359.33 0.197869 359.386 0.146751C359.442 0.0956338 359.508 0.056373 359.579 0.0313663C359.651 0.00635954 359.727 -0.00386833 359.803 0.00130721C359.945 -0.00655534 360.084 0.0400458 360.192 0.131446C360.3 0.222846 360.368 0.35203 360.383 0.492207C360.45 1.09719 360.846 1.1767 361.339 1.23547C362.326 1.33599 363.266 1.707 364.054 2.30715C364.384 2.55529 364.65 2.87854 364.828 3.24977C365.207 4.05642 364.959 4.42747 364.094 4.62568C363.504 4.76165 362.974 4.8331 362.383 4.62568C362.198 4.55502 361.995 4.55092 361.807 4.61409C361.62 4.67726 361.461 4.80369 361.358 4.97138C361.136 5.28482 360.763 5.28136 360.537 4.97138C360.148 4.44476 359.667 4.58074 359.174 4.68906C358.955 4.7363 358.748 4.91953 358.517 4.82619C357.821 4.53925 357.213 4.45743 356.601 5.10044C356.276 5.43923 354.625 4.34681 354.625 3.77985ZM363.193 3.28665C361.781 2.06286 357.396 2.11702 356.55 3.28665H363.193Z" fill="#14202B"/>
<path d="M341.5 15.9511C339.95 15.9511 338.601 14.5752 338.627 13.0333C338.655 11.4638 339.999 10.1525 341.558 10.1686C343.081 10.1859 344.424 11.5145 344.443 13.0207C344.463 14.5936 343.093 15.9568 341.5 15.9511ZM343.156 13.0587C343.148 12.1103 342.449 11.4396 341.479 11.4454C340.569 11.4558 339.909 12.1483 339.917 13.0852C339.927 14.0071 340.613 14.6651 341.541 14.6616C341.968 14.6595 342.377 14.49 342.68 14.1899C342.982 13.8898 343.153 13.4834 343.156 13.0587Z" fill="#14202B"/>
<path d="M362.684 13.0549C362.684 14.6221 361.367 15.9485 359.808 15.9496C358.248 15.9508 356.944 14.6313 356.935 13.0561C356.925 11.4808 358.255 10.1499 359.802 10.1568C361.349 10.1637 362.682 11.4912 362.684 13.0549ZM361.396 13.078C361.396 12.1238 360.774 11.4647 359.839 11.4508C359.621 11.4464 359.404 11.485 359.201 11.5644C358.997 11.6438 358.812 11.7623 358.655 11.9133C358.498 12.0642 358.373 12.2446 358.287 12.4439C358.2 12.6432 358.155 12.8575 358.152 13.0745C358.139 13.918 358.906 14.6613 359.794 14.667C360.731 14.6728 361.392 14.0171 361.396 13.078Z" fill="#14202B"/>
<path d="M357.015 7.00529C356.987 7.40746 356.914 7.85572 356.369 7.83267C355.859 7.81193 355.724 7.39363 355.734 6.94998C355.744 6.52476 355.901 6.16062 356.392 6.17214C356.882 6.18366 357.016 6.54896 357.015 7.00529Z" fill="#14202B"/>
<path d="M361.582 6.95775C361.558 7.41869 361.474 7.83815 360.967 7.83469C360.37 7.83469 360.325 7.33227 360.322 6.88976C360.322 6.48299 360.51 6.14996 360.972 6.173C361.466 6.19836 361.582 6.56941 361.582 6.95775Z" fill="#14202B"/>
<path d="M241.484 34.9985C231.945 35.0649 223.987 27.0592 224.008 17.479C224.028 7.94159 231.979 -0.00609576 241.565 0.02352C251.087 0.0531358 259.021 7.99016 259 17.556C258.979 27.0947 251.042 35.0886 241.484 34.9985ZM225.33 17.5087C225.411 26.5355 232.478 33.6789 241.514 33.6741C250.549 33.6694 257.652 26.5427 257.659 17.53C257.666 8.51732 250.551 1.35978 241.496 1.36571C232.477 1.37044 225.422 8.49718 225.33 17.5087Z" fill="#14202B"/>
<path d="M237.736 21.3089C237.736 19.5959 237.749 17.8817 237.729 16.1687C237.729 15.6262 237.826 15.1618 238.282 14.8337C238.862 14.4155 239.016 13.867 239 13.1562C238.951 11.1424 238.981 9.12849 238.983 7.11462C238.983 6.4228 239.181 6.25695 239.879 6.28538C240.422 6.30315 240.968 6.28538 241.513 6.27472C242.67 6.2612 243.822 6.42092 244.931 6.74857C245.021 6.78043 245.117 6.79165 245.213 6.7814C245.308 6.77115 245.399 6.73969 245.481 6.68934C246.265 6.23918 247.028 6.29959 247.792 6.78411C248.91 7.49489 249.503 8.56105 249.924 9.76227C250.01 10.0202 250.141 10.2609 250.31 10.473C253.663 14.5908 253.569 20.7793 250.103 24.8071C249.716 25.2813 249.285 25.7176 248.815 26.1102C248.725 26.1797 248.652 26.2694 248.602 26.3723C248.552 26.4752 248.527 26.5882 248.529 26.7025C248.523 27.0952 248.407 27.4784 248.194 27.8084C247.981 28.1385 247.679 28.4021 247.324 28.5695C246.622 28.9249 245.94 28.8324 245.32 28.3479C245.255 28.2937 245.177 28.258 245.093 28.2449C245.01 28.2317 244.924 28.2416 244.846 28.2733C242.831 28.9229 240.667 28.9518 238.635 28.3562C238.561 28.335 238.484 28.3312 238.408 28.3452C238.333 28.3591 238.262 28.3905 238.201 28.4368C236.932 29.2056 235.511 28.5552 235.254 27.0887C235.24 27.0069 235.208 26.9291 235.161 26.8606C235.114 26.7921 235.053 26.7346 234.981 26.6918C232.197 24.6779 230.618 21.9533 230.294 18.557C229.981 15.2815 231.035 12.4028 233.216 9.96721C233.774 9.3441 234.121 8.75296 234.003 7.90951C233.973 7.5603 233.973 7.20913 234.003 6.85992C234.016 6.49861 234.23 6.30078 234.595 6.28183C234.96 6.26287 235.237 6.45597 235.283 6.81491C235.297 6.95705 235.301 7.09988 235.296 7.24256C235.296 9.40688 235.296 11.5712 235.296 13.7367C235.296 14.0186 235.352 14.252 235.584 14.4155C236.414 14.996 236.594 15.7802 236.572 16.7694C236.507 19.7546 236.553 22.7411 236.543 25.7263C236.543 26.1528 236.637 26.571 236.575 27.0046C236.534 27.2782 236.718 27.4997 237.024 27.5471C237.31 27.5921 237.532 27.5045 237.66 27.2225C237.724 27.0522 237.75 26.8698 237.737 26.6883L237.736 21.3089ZM239.039 21.4818C239.039 23.2469 239.039 25.012 239.039 26.7771C239.039 27.0519 239.131 27.1716 239.394 27.2249C241.014 27.5592 242.689 27.5102 244.287 27.0816C244.334 27.0754 244.38 27.06 244.422 27.036C244.463 27.012 244.499 26.98 244.529 26.9419C244.558 26.9038 244.579 26.8603 244.591 26.8139C244.603 26.7675 244.606 26.7192 244.599 26.6717C244.593 23.4009 244.599 20.1302 244.59 16.8594C244.602 16.3883 244.441 15.9291 244.139 15.5681C243.346 14.6204 242.793 13.5673 242.812 12.2867C242.828 10.8919 243.195 9.52366 243.878 8.30754C244.04 8.01731 244.011 7.92135 243.681 7.84554C242.722 7.6252 241.754 7.61927 240.779 7.62401C240.375 7.62401 240.284 7.77209 240.287 8.15117C240.304 10.1757 240.296 12.2002 240.294 14.226C240.294 14.5399 240.271 14.8503 240.007 15.0789C239.781 15.2755 239.573 15.4923 239.335 15.6712C239.235 15.7422 239.156 15.8379 239.105 15.9488C239.054 16.0598 239.033 16.1821 239.043 16.3038C239.046 18.0298 239.041 19.7546 239.04 21.4818H239.039ZM246.04 21.6939C246.04 23.3808 246.04 25.0677 246.04 26.7546C246.04 27.2202 246.258 27.4595 246.642 27.4441C246.997 27.4298 247.254 27.1609 247.157 26.7333C247.039 26.1943 247.184 25.6837 247.182 25.1613C247.17 22.4224 247.176 19.6847 247.182 16.9471C247.164 16.0964 247.471 15.2709 248.04 14.6382C248.597 14.0021 248.987 13.2557 249.068 12.372C249.118 11.7927 248.996 11.2442 248.907 10.6815C248.751 9.57599 248.195 8.56582 247.345 7.84198C247.132 7.67236 246.867 7.5808 246.595 7.58252C246.323 7.58424 246.059 7.67915 245.848 7.85146C244.914 8.65701 244.486 9.72555 244.253 10.8936C243.989 12.2204 244.168 13.4488 245.11 14.4949C245.837 15.3016 246.081 16.2529 246.047 17.3309C246.007 18.7868 246.042 20.2415 246.042 21.6939H246.04ZM235.243 25.1696V24.6839C235.243 22.2447 235.197 19.8044 235.266 17.3676C235.294 16.3618 235.133 15.5409 234.272 14.9462C234.035 14.7851 233.991 14.5351 233.993 14.2579C234.003 13.3102 233.993 12.3625 233.993 11.4148C233.993 11.3058 234.041 11.1779 233.94 11.0855C230.559 14.7661 230.68 21.6086 235.243 25.1696ZM250.261 12.9086C250.106 13.9239 249.658 14.7188 249.065 15.4426C248.669 15.9259 248.522 16.4756 248.526 17.1011C248.545 19.4241 248.534 21.7472 248.534 24.0702V24.5263C251.505 21.6015 252.331 16.7824 250.261 12.9086Z" fill="#14202B"/>
<path d="M237.792 10.3522C237.792 11.4811 237.792 12.6113 237.792 13.7402C237.792 14.2022 237.556 14.4332 237.134 14.4285C236.712 14.4238 236.498 14.1916 236.494 13.7177C236.494 12.706 236.494 11.6932 236.494 10.6803C236.494 9.44713 236.494 8.21393 236.494 6.98191C236.494 6.46304 236.809 6.19887 237.288 6.28298C237.625 6.34221 237.791 6.56611 237.792 7.00087C237.796 8.11916 237.794 9.23626 237.792 10.3522Z" fill="#14202B"/>
<path d="M1.191 50.7754C1.191 50.1754 1.303 49.6154 1.527 49.0954C1.751 48.5674 2.063 48.1034 2.463 47.7034C2.863 47.2954 3.323 46.9794 3.843 46.7554C4.371 46.5234 4.935 46.4074 5.535 46.4074C6.135 46.4074 6.699 46.5234 7.227 46.7554C7.755 46.9794 8.219 47.2954 8.619 47.7034C9.019 48.1034 9.331 48.5674 9.555 49.0954C9.787 49.6154 9.903 50.1754 9.903 50.7754C9.903 51.5514 9.715 52.2634 9.339 52.9114C8.963 53.5594 8.467 54.0754 7.851 54.4594H10.143V55.0234H6.447C6.151 55.0874 5.847 55.1194 5.535 55.1194C4.935 55.1194 4.371 55.0114 3.843 54.7954C3.323 54.5794 2.863 54.2754 2.463 53.8834C2.063 53.4914 1.751 53.0314 1.527 52.5034C1.303 51.9754 1.191 51.3994 1.191 50.7754ZM1.791 50.7874C1.791 51.3074 1.887 51.7954 2.079 52.2514C2.271 52.7074 2.539 53.1074 2.883 53.4514C3.227 53.7954 3.623 54.0674 4.071 54.2674C4.527 54.4594 5.011 54.5554 5.523 54.5554C6.051 54.5554 6.543 54.4594 6.999 54.2674C7.455 54.0674 7.855 53.7954 8.199 53.4514C8.543 53.1074 8.811 52.7074 9.003 52.2514C9.203 51.7954 9.303 51.3034 9.303 50.7754C9.303 50.2554 9.203 49.7674 9.003 49.3114C8.811 48.8554 8.543 48.4554 8.199 48.1114C7.855 47.7594 7.455 47.4834 6.999 47.2834C6.543 47.0834 6.055 46.9834 5.535 46.9834C5.007 46.9834 4.515 47.0874 4.059 47.2954C3.603 47.4954 3.203 47.7714 2.859 48.1234C2.523 48.4754 2.259 48.8834 2.067 49.3474C1.883 49.8034 1.791 50.2834 1.791 50.7874ZM13.501 55.1554C13.061 55.1554 12.709 55.0274 12.445 54.7714C12.181 54.5074 12.041 54.1674 12.025 53.7514V50.3314H12.589V53.5834C12.605 53.8874 12.701 54.1394 12.877 54.3394C13.061 54.5394 13.333 54.6474 13.693 54.6634C13.997 54.6634 14.281 54.5834 14.545 54.4234C14.809 54.2634 15.021 54.0474 15.181 53.7754C15.349 53.4954 15.433 53.1794 15.433 52.8274V50.3314H15.997V55.0234H15.493L15.457 54.0274C15.297 54.3554 15.033 54.6274 14.665 54.8434C14.305 55.0514 13.917 55.1554 13.501 55.1554ZM20.1705 55.1194C19.6825 55.1194 19.2505 55.0114 18.8745 54.7954C18.4985 54.5794 18.2025 54.2874 17.9865 53.9194C17.7785 53.5434 17.6745 53.1234 17.6745 52.6594C17.6745 52.2034 17.7865 51.7874 18.0105 51.4114C18.2345 51.0354 18.5345 50.7354 18.9105 50.5114C19.2945 50.2874 19.7185 50.1754 20.1825 50.1754C20.7425 50.1754 21.2105 50.3394 21.5865 50.6674C21.9705 50.9954 22.2465 51.4234 22.4145 51.9514L18.4065 53.4994C18.5585 53.8274 18.7865 54.0994 19.0905 54.3154C19.4025 54.5234 19.7665 54.6274 20.1825 54.6274C20.4385 54.6274 20.6825 54.5794 20.9145 54.4834C21.1545 54.3874 21.3665 54.2634 21.5505 54.1114L21.8385 54.5194C21.6145 54.6954 21.3545 54.8394 21.0585 54.9514C20.7705 55.0634 20.4745 55.1194 20.1705 55.1194ZM18.2265 52.6354C18.2265 52.7874 18.2425 52.9354 18.2745 53.0794L21.7305 51.7234C21.5865 51.4354 21.3825 51.1874 21.1185 50.9794C20.8545 50.7634 20.5305 50.6554 20.1465 50.6554C19.7865 50.6554 19.4625 50.7434 19.1745 50.9194C18.8865 51.0954 18.6545 51.3314 18.4785 51.6274C18.3105 51.9234 18.2265 52.2594 18.2265 52.6354ZM26.0182 55.1194C25.5302 55.1194 25.0982 55.0114 24.7222 54.7954C24.3462 54.5794 24.0502 54.2874 23.8342 53.9194C23.6262 53.5434 23.5222 53.1234 23.5222 52.6594C23.5222 52.2034 23.6342 51.7874 23.8582 51.4114C24.0822 51.0354 24.3822 50.7354 24.7582 50.5114C25.1422 50.2874 25.5662 50.1754 26.0302 50.1754C26.5902 50.1754 27.0582 50.3394 27.4342 50.6674C27.8182 50.9954 28.0942 51.4234 28.2622 51.9514L24.2542 53.4994C24.4062 53.8274 24.6342 54.0994 24.9382 54.3154C25.2502 54.5234 25.6142 54.6274 26.0302 54.6274C26.2862 54.6274 26.5302 54.5794 26.7622 54.4834C27.0022 54.3874 27.2142 54.2634 27.3982 54.1114L27.6862 54.5194C27.4622 54.6954 27.2022 54.8394 26.9062 54.9514C26.6182 55.0634 26.3222 55.1194 26.0182 55.1194ZM24.0742 52.6354C24.0742 52.7874 24.0902 52.9354 24.1222 53.0794L27.5782 51.7234C27.4342 51.4354 27.2302 51.1874 26.9662 50.9794C26.7022 50.7634 26.3782 50.6554 25.9942 50.6554C25.6342 50.6554 25.3102 50.7434 25.0222 50.9194C24.7342 51.0954 24.5022 51.3314 24.3262 51.6274C24.1582 51.9234 24.0742 52.2594 24.0742 52.6354ZM30.3178 50.3314L30.3658 51.3754C30.5258 51.0074 30.7858 50.7194 31.1458 50.5114C31.5138 50.3034 31.9138 50.1994 32.3458 50.1994C32.7858 50.1994 33.1418 50.3314 33.4138 50.5954C33.6858 50.8514 33.8258 51.1874 33.8338 51.6034V55.0234H33.2578V51.7594C33.2498 51.4554 33.1538 51.2034 32.9698 51.0034C32.7858 50.8034 32.5178 50.6994 32.1658 50.6914C31.8538 50.6914 31.5618 50.7674 31.2898 50.9194C31.0178 51.0714 30.7978 51.2834 30.6298 51.5554C30.4698 51.8274 30.3898 52.1434 30.3898 52.5034V55.0234H29.8258V50.3314H30.3178ZM44.1941 47.4634C43.9461 47.3434 43.6421 47.2314 43.2821 47.1274C42.9221 47.0234 42.5621 46.9714 42.2021 46.9714C41.6421 46.9714 41.1941 47.1114 40.8581 47.3914C40.5221 47.6714 40.3541 48.0234 40.3541 48.4474C40.3541 48.7674 40.4501 49.0354 40.6421 49.2514C40.8341 49.4594 41.0861 49.6394 41.3981 49.7914C41.7101 49.9354 42.0421 50.0754 42.3941 50.2114C42.6741 50.3154 42.9501 50.4314 43.2221 50.5594C43.5021 50.6874 43.7541 50.8434 43.9781 51.0274C44.2021 51.2114 44.3781 51.4394 44.5061 51.7114C44.6421 51.9834 44.7101 52.3194 44.7101 52.7194C44.7101 53.1914 44.5981 53.6114 44.3741 53.9794C44.1501 54.3394 43.8381 54.6194 43.4381 54.8194C43.0381 55.0194 42.5741 55.1194 42.0461 55.1194C41.6221 55.1194 41.2341 55.0674 40.8821 54.9634C40.5381 54.8594 40.2341 54.7394 39.9701 54.6034C39.7141 54.4594 39.5101 54.3394 39.3581 54.2434L39.6341 53.7634C39.8101 53.8914 40.0221 54.0194 40.2701 54.1474C40.5261 54.2754 40.8021 54.3834 41.0981 54.4714C41.3941 54.5594 41.6901 54.6034 41.9861 54.6034C42.3301 54.6034 42.6621 54.5354 42.9821 54.3994C43.3101 54.2634 43.5781 54.0594 43.7861 53.7874C44.0021 53.5074 44.1101 53.1554 44.1101 52.7314C44.1101 52.3234 44.0101 51.9954 43.8101 51.7474C43.6101 51.4914 43.3541 51.2834 43.0421 51.1234C42.7301 50.9634 42.3981 50.8194 42.0461 50.6914C41.6781 50.5554 41.3181 50.4034 40.9661 50.2354C40.6141 50.0594 40.3221 49.8354 40.0901 49.5634C39.8661 49.2914 39.7541 48.9394 39.7541 48.5074C39.7541 48.0994 39.8581 47.7434 40.0661 47.4394C40.2741 47.1354 40.5541 46.8994 40.9061 46.7314C41.2661 46.5554 41.6741 46.4634 42.1301 46.4554C42.5301 46.4554 42.9341 46.5074 43.3421 46.6114C43.7581 46.7154 44.1181 46.8474 44.4221 47.0074L44.1941 47.4634ZM46.6188 50.3314H47.1828V55.0234H46.6188V50.3314ZM46.4988 48.6034C46.4988 48.4914 46.5428 48.3994 46.6308 48.3274C46.7188 48.2474 46.8148 48.2074 46.9188 48.2074C47.0308 48.2074 47.1268 48.2474 47.2068 48.3274C47.2868 48.3994 47.3268 48.4914 47.3268 48.6034C47.3268 48.7234 47.2868 48.8234 47.2068 48.9034C47.1268 48.9754 47.0308 49.0114 46.9188 49.0114C46.8148 49.0114 46.7188 48.9714 46.6308 48.8914C46.5428 48.8114 46.4988 48.7154 46.4988 48.6034ZM49.4341 50.7994C49.2261 50.7994 49.0541 50.7514 48.9181 50.6554C48.7821 50.5514 48.7141 50.3714 48.7141 50.1154V49.8874H49.1581V50.0314C49.1581 50.2314 49.2941 50.3314 49.5661 50.3314H52.6021L49.6381 54.5434H52.5541V55.0234H48.6781L51.6541 50.7994H49.4341ZM56.2057 55.1194C55.7177 55.1194 55.2857 55.0114 54.9097 54.7954C54.5337 54.5794 54.2377 54.2874 54.0217 53.9194C53.8137 53.5434 53.7097 53.1234 53.7097 52.6594C53.7097 52.2034 53.8217 51.7874 54.0457 51.4114C54.2697 51.0354 54.5697 50.7354 54.9457 50.5114C55.3297 50.2874 55.7537 50.1754 56.2177 50.1754C56.7777 50.1754 57.2457 50.3394 57.6217 50.6674C58.0057 50.9954 58.2817 51.4234 58.4497 51.9514L54.4417 53.4994C54.5937 53.8274 54.8217 54.0994 55.1257 54.3154C55.4377 54.5234 55.8017 54.6274 56.2177 54.6274C56.4737 54.6274 56.7177 54.5794 56.9497 54.4834C57.1897 54.3874 57.4017 54.2634 57.5857 54.1114L57.8737 54.5194C57.6497 54.6954 57.3897 54.8394 57.0937 54.9514C56.8057 55.0634 56.5097 55.1194 56.2057 55.1194ZM54.2617 52.6354C54.2617 52.7874 54.2777 52.9354 54.3097 53.0794L57.7657 51.7234C57.6217 51.4354 57.4177 51.1874 57.1537 50.9794C56.8897 50.7634 56.5657 50.6554 56.1817 50.6554C55.8217 50.6554 55.4977 50.7434 55.2097 50.9194C54.9217 51.0954 54.6897 51.3314 54.5137 51.6274C54.3457 51.9234 54.2617 52.2594 54.2617 52.6354ZM24.908 62.5034C25.732 62.5034 26.368 62.6754 26.816 63.0194C27.272 63.3554 27.5 63.9034 27.5 64.6634C27.5 65.1274 27.392 65.5394 27.176 65.8994C26.96 66.2594 26.64 66.5234 26.216 66.6914C26.704 66.8354 27.112 67.0874 27.44 67.4474C27.768 67.7994 27.932 68.2354 27.932 68.7554C27.932 69.2674 27.804 69.6914 27.548 70.0274C27.292 70.3634 26.96 70.6154 26.552 70.7834C26.144 70.9434 25.708 71.0234 25.244 71.0234H23.024V62.5034H24.908ZM25.184 66.4874C25.792 66.4874 26.228 66.3234 26.492 65.9954C26.764 65.6674 26.9 65.2594 26.9 64.7714C26.9 64.1634 26.72 63.7274 26.36 63.4634C26.008 63.1994 25.532 63.0674 24.932 63.0674H23.612V66.4874H25.184ZM25.22 70.4834C25.604 70.4834 25.956 70.4234 26.276 70.3034C26.596 70.1754 26.852 69.9834 27.044 69.7274C27.236 69.4714 27.332 69.1554 27.332 68.7794C27.332 68.3634 27.224 68.0314 27.008 67.7834C26.792 67.5274 26.52 67.3434 26.192 67.2314C25.864 67.1114 25.528 67.0514 25.184 67.0514H23.612V70.4834H25.22ZM31.8541 71.1194C31.3661 71.1194 30.9341 71.0114 30.5581 70.7954C30.1821 70.5794 29.8861 70.2874 29.6701 69.9194C29.4621 69.5434 29.3581 69.1234 29.3581 68.6594C29.3581 68.2034 29.4701 67.7874 29.6941 67.4114C29.9181 67.0354 30.2181 66.7354 30.5941 66.5114C30.9781 66.2874 31.4021 66.1754 31.8661 66.1754C32.4261 66.1754 32.8941 66.3394 33.2701 66.6674C33.6541 66.9954 33.9301 67.4234 34.0981 67.9514L30.0901 69.4994C30.2421 69.8274 30.4701 70.0994 30.7741 70.3154C31.0861 70.5234 31.4501 70.6274 31.8661 70.6274C32.1221 70.6274 32.3661 70.5794 32.5981 70.4834C32.8381 70.3874 33.0501 70.2634 33.2341 70.1114L33.5221 70.5194C33.2981 70.6954 33.0381 70.8394 32.7421 70.9514C32.4541 71.0634 32.1581 71.1194 31.8541 71.1194ZM29.9101 68.6354C29.9101 68.7874 29.9261 68.9354 29.9581 69.0794L33.4141 67.7234C33.2701 67.4354 33.0661 67.1874 32.8021 66.9794C32.5381 66.7634 32.2141 66.6554 31.8301 66.6554C31.4701 66.6554 31.1461 66.7434 30.8581 66.9194C30.5701 67.0954 30.3381 67.3314 30.1621 67.6274C29.9941 67.9234 29.9101 68.2594 29.9101 68.6354ZM37.5818 71.1194C37.1418 71.1194 36.7418 71.0154 36.3818 70.8074C36.0218 70.5914 35.7338 70.2954 35.5178 69.9194C35.3098 69.5434 35.2058 69.1194 35.2058 68.6474C35.2058 68.1434 35.3138 67.7074 35.5298 67.3394C35.7458 66.9714 36.0378 66.6874 36.4058 66.4874C36.7818 66.2874 37.1938 66.1874 37.6418 66.1874C38.0578 66.1874 38.4538 66.2874 38.8298 66.4874C39.2058 66.6874 39.4978 66.9514 39.7058 67.2794V61.9034H40.2698V71.0234H39.6938V70.0514C39.4778 70.3714 39.1818 70.6314 38.8058 70.8314C38.4298 71.0234 38.0218 71.1194 37.5818 71.1194ZM37.7258 70.6274C38.0858 70.6274 38.4098 70.5514 38.6978 70.3994C38.9858 70.2394 39.2178 70.0274 39.3938 69.7634C39.5698 69.4914 39.6698 69.1874 39.6938 68.8514V68.2514C39.6378 67.9474 39.5138 67.6754 39.3218 67.4354C39.1298 67.1954 38.8978 67.0074 38.6258 66.8714C38.3538 66.7274 38.0538 66.6554 37.7258 66.6554C37.3658 66.6554 37.0378 66.7394 36.7418 66.9074C36.4458 67.0754 36.2098 67.3074 36.0338 67.6034C35.8578 67.8994 35.7698 68.2434 35.7698 68.6354C35.7698 69.0034 35.8578 69.3394 36.0338 69.6434C36.2098 69.9394 36.4458 70.1794 36.7418 70.3634C37.0458 70.5394 37.3738 70.6274 37.7258 70.6274Z" fill="#14202B"/>
<path d="M119.484 55.2274L112.92 47.8354L112.932 55.0234H112.356V46.3234H112.392L118.956 53.7754L118.944 46.5034H119.508V55.2274H119.484ZM123.975 55.1194C123.487 55.1194 123.055 55.0114 122.679 54.7954C122.303 54.5794 122.007 54.2874 121.791 53.9194C121.583 53.5434 121.479 53.1234 121.479 52.6594C121.479 52.2034 121.591 51.7874 121.815 51.4114C122.039 51.0354 122.339 50.7354 122.715 50.5114C123.099 50.2874 123.523 50.1754 123.987 50.1754C124.547 50.1754 125.015 50.3394 125.391 50.6674C125.775 50.9954 126.051 51.4234 126.219 51.9514L122.211 53.4994C122.363 53.8274 122.591 54.0994 122.895 54.3154C123.207 54.5234 123.571 54.6274 123.987 54.6274C124.243 54.6274 124.487 54.5794 124.719 54.4834C124.959 54.3874 125.171 54.2634 125.355 54.1114L125.643 54.5194C125.419 54.6954 125.159 54.8394 124.863 54.9514C124.575 55.0634 124.279 55.1194 123.975 55.1194ZM122.031 52.6354C122.031 52.7874 122.047 52.9354 122.079 53.0794L125.535 51.7234C125.391 51.4354 125.187 51.1874 124.923 50.9794C124.659 50.7634 124.335 50.6554 123.951 50.6554C123.591 50.6554 123.267 50.7434 122.979 50.9194C122.691 51.0954 122.459 51.3314 122.283 51.6274C122.115 51.9234 122.031 52.2594 122.031 52.6354ZM128.251 48.2674H128.827V50.3914H130.279V50.8474H128.827V55.0234H128.251V50.8474H127.255V50.3914H128.251V48.2674ZM131.997 55.0234V50.8594H131.181V50.3434H131.997V47.9794C131.997 47.2274 132.125 46.6874 132.381 46.3594C132.645 46.0234 133.033 45.8554 133.545 45.8554C133.657 45.8554 133.777 45.8714 133.905 45.9034C134.033 45.9274 134.149 45.9714 134.253 46.0354L134.013 46.4434C133.909 46.3634 133.769 46.3234 133.593 46.3234C133.249 46.3234 132.989 46.4434 132.813 46.6834C132.645 46.9234 132.561 47.3514 132.561 47.9674V50.3434H134.061V50.8594H132.561V55.0234H131.997ZM135.297 45.9034H135.861V55.0234H135.297V45.9034ZM138.002 50.3314H138.566V55.0234H138.002V50.3314ZM137.882 48.6034C137.882 48.4914 137.926 48.3994 138.014 48.3274C138.102 48.2474 138.198 48.2074 138.302 48.2074C138.414 48.2074 138.51 48.2474 138.59 48.3274C138.67 48.3994 138.71 48.4914 138.71 48.6034C138.71 48.7234 138.67 48.8234 138.59 48.9034C138.51 48.9754 138.414 49.0114 138.302 49.0114C138.198 49.0114 138.102 48.9714 138.014 48.8914C137.926 48.8114 137.882 48.7154 137.882 48.6034ZM144.153 55.0234H143.481L142.017 53.0674L140.625 55.0234H140.025L141.717 52.6714L139.965 50.3314H140.673L142.125 52.2874L143.469 50.3314H144.057L142.401 52.6594L144.153 55.0234ZM148.844 46.5034H154.424V47.0674H151.916V55.0234H151.328V47.0674H148.844V46.5034ZM157.482 55.2034L155.106 50.3314H155.766L157.542 54.1954L159.258 50.3314H159.882L157.554 55.2034H157.482Z" fill="#14202B"/>
<path d="M219.18 47.4634C218.932 47.3434 218.628 47.2314 218.268 47.1274C217.908 47.0234 217.548 46.9714 217.188 46.9714C216.628 46.9714 216.18 47.1114 215.844 47.3914C215.508 47.6714 215.34 48.0234 215.34 48.4474C215.34 48.7674 215.436 49.0354 215.628 49.2514C215.82 49.4594 216.072 49.6394 216.384 49.7914C216.696 49.9354 217.028 50.0754 217.38 50.2114C217.66 50.3154 217.936 50.4314 218.208 50.5594C218.488 50.6874 218.74 50.8434 218.964 51.0274C219.188 51.2114 219.364 51.4394 219.492 51.7114C219.628 51.9834 219.696 52.3194 219.696 52.7194C219.696 53.1914 219.584 53.6114 219.36 53.9794C219.136 54.3394 218.824 54.6194 218.424 54.8194C218.024 55.0194 217.56 55.1194 217.032 55.1194C216.608 55.1194 216.22 55.0674 215.868 54.9634C215.524 54.8594 215.22 54.7394 214.956 54.6034C214.7 54.4594 214.496 54.3394 214.344 54.2434L214.62 53.7634C214.796 53.8914 215.008 54.0194 215.256 54.1474C215.512 54.2754 215.788 54.3834 216.084 54.4714C216.38 54.5594 216.676 54.6034 216.972 54.6034C217.316 54.6034 217.648 54.5354 217.968 54.3994C218.296 54.2634 218.564 54.0594 218.772 53.7874C218.988 53.5074 219.096 53.1554 219.096 52.7314C219.096 52.3234 218.996 51.9954 218.796 51.7474C218.596 51.4914 218.34 51.2834 218.028 51.1234C217.716 50.9634 217.384 50.8194 217.032 50.6914C216.664 50.5554 216.304 50.4034 215.952 50.2354C215.6 50.0594 215.308 49.8354 215.076 49.5634C214.852 49.2914 214.74 48.9394 214.74 48.5074C214.74 48.0994 214.844 47.7434 215.052 47.4394C215.26 47.1354 215.54 46.8994 215.892 46.7314C216.252 46.5554 216.66 46.4634 217.116 46.4554C217.516 46.4554 217.92 46.5074 218.328 46.6114C218.744 46.7154 219.104 46.8474 219.408 47.0074L219.18 47.4634ZM223.645 55.1194C223.157 55.1194 222.725 55.0114 222.349 54.7954C221.973 54.5794 221.677 54.2874 221.461 53.9194C221.253 53.5434 221.149 53.1234 221.149 52.6594C221.149 52.2034 221.261 51.7874 221.485 51.4114C221.709 51.0354 222.009 50.7354 222.385 50.5114C222.769 50.2874 223.193 50.1754 223.657 50.1754C224.217 50.1754 224.685 50.3394 225.061 50.6674C225.445 50.9954 225.721 51.4234 225.889 51.9514L221.881 53.4994C222.033 53.8274 222.261 54.0994 222.565 54.3154C222.877 54.5234 223.241 54.6274 223.657 54.6274C223.913 54.6274 224.157 54.5794 224.389 54.4834C224.629 54.3874 224.841 54.2634 225.025 54.1114L225.313 54.5194C225.089 54.6954 224.829 54.8394 224.533 54.9514C224.245 55.0634 223.949 55.1194 223.645 55.1194ZM221.701 52.6354C221.701 52.7874 221.717 52.9354 221.749 53.0794L225.205 51.7234C225.061 51.4354 224.857 51.1874 224.593 50.9794C224.329 50.7634 224.005 50.6554 223.621 50.6554C223.261 50.6554 222.937 50.7434 222.649 50.9194C222.361 51.0954 222.129 51.3314 221.953 51.6274C221.785 51.9234 221.701 52.2594 221.701 52.6354ZM227.453 45.9034H228.017V55.0234H227.453V45.9034ZM230.46 55.0234V50.8594H229.644V50.3434H230.46V47.9794C230.46 47.2274 230.588 46.6874 230.844 46.3594C231.108 46.0234 231.496 45.8554 232.008 45.8554C232.12 45.8554 232.24 45.8714 232.368 45.9034C232.496 45.9274 232.612 45.9714 232.716 46.0354L232.476 46.4434C232.372 46.3634 232.232 46.3234 232.056 46.3234C231.712 46.3234 231.452 46.4434 231.276 46.6834C231.108 46.9234 231.024 47.3514 231.024 47.9674V50.3434H232.596V50.8594H231.024V55.0234H230.46ZM242.266 47.4634C242.018 47.3434 241.714 47.2314 241.354 47.1274C240.994 47.0234 240.634 46.9714 240.274 46.9714C239.714 46.9714 239.266 47.1114 238.93 47.3914C238.594 47.6714 238.426 48.0234 238.426 48.4474C238.426 48.7674 238.522 49.0354 238.714 49.2514C238.906 49.4594 239.158 49.6394 239.47 49.7914C239.782 49.9354 240.114 50.0754 240.466 50.2114C240.746 50.3154 241.022 50.4314 241.294 50.5594C241.574 50.6874 241.826 50.8434 242.05 51.0274C242.274 51.2114 242.45 51.4394 242.578 51.7114C242.714 51.9834 242.782 52.3194 242.782 52.7194C242.782 53.1914 242.67 53.6114 242.446 53.9794C242.222 54.3394 241.91 54.6194 241.51 54.8194C241.11 55.0194 240.646 55.1194 240.118 55.1194C239.694 55.1194 239.306 55.0674 238.954 54.9634C238.61 54.8594 238.306 54.7394 238.042 54.6034C237.786 54.4594 237.582 54.3394 237.43 54.2434L237.706 53.7634C237.882 53.8914 238.094 54.0194 238.342 54.1474C238.598 54.2754 238.874 54.3834 239.17 54.4714C239.466 54.5594 239.762 54.6034 240.058 54.6034C240.402 54.6034 240.734 54.5354 241.054 54.3994C241.382 54.2634 241.65 54.0594 241.858 53.7874C242.074 53.5074 242.182 53.1554 242.182 52.7314C242.182 52.3234 242.082 51.9954 241.882 51.7474C241.682 51.4914 241.426 51.2834 241.114 51.1234C240.802 50.9634 240.47 50.8194 240.118 50.6914C239.75 50.5554 239.39 50.4034 239.038 50.2354C238.686 50.0594 238.394 49.8354 238.162 49.5634C237.938 49.2914 237.826 48.9394 237.826 48.5074C237.826 48.0994 237.93 47.7434 238.138 47.4394C238.346 47.1354 238.626 46.8994 238.978 46.7314C239.338 46.5554 239.746 46.4634 240.202 46.4554C240.602 46.4554 241.006 46.5074 241.414 46.6114C241.83 46.7154 242.19 46.8474 242.494 47.0074L242.266 47.4634ZM246.731 55.1194C246.243 55.1194 245.811 55.0114 245.435 54.7954C245.059 54.5794 244.763 54.2874 244.547 53.9194C244.339 53.5434 244.235 53.1234 244.235 52.6594C244.235 52.2034 244.347 51.7874 244.571 51.4114C244.795 51.0354 245.095 50.7354 245.471 50.5114C245.855 50.2874 246.279 50.1754 246.743 50.1754C247.303 50.1754 247.771 50.3394 248.147 50.6674C248.531 50.9954 248.807 51.4234 248.975 51.9514L244.967 53.4994C245.119 53.8274 245.347 54.0994 245.651 54.3154C245.963 54.5234 246.327 54.6274 246.743 54.6274C246.999 54.6274 247.243 54.5794 247.475 54.4834C247.715 54.3874 247.927 54.2634 248.111 54.1114L248.399 54.5194C248.175 54.6954 247.915 54.8394 247.619 54.9514C247.331 55.0634 247.035 55.1194 246.731 55.1194ZM244.787 52.6354C244.787 52.7874 244.803 52.9354 244.835 53.0794L248.291 51.7234C248.147 51.4354 247.943 51.1874 247.679 50.9794C247.415 50.7634 247.091 50.6554 246.707 50.6554C246.347 50.6554 246.023 50.7434 245.735 50.9194C245.447 51.0954 245.215 51.3314 245.039 51.6274C244.871 51.9234 244.787 52.2594 244.787 52.6354ZM251.031 50.3314L251.079 51.4474C251.199 51.1914 251.367 50.9714 251.583 50.7874C251.807 50.5954 252.047 50.4514 252.303 50.3554C252.567 50.2514 252.819 50.1994 253.059 50.1994L253.035 50.7514C252.675 50.7514 252.347 50.8314 252.051 50.9914C251.763 51.1514 251.531 51.3674 251.355 51.6394C251.187 51.9034 251.103 52.2034 251.103 52.5394V55.0234H250.539V50.3314H251.031ZM256.284 55.2034L253.908 50.3314H254.568L256.344 54.1954L258.06 50.3314H258.684L256.356 55.2034H256.284ZM260.089 50.3314H260.653V55.0234H260.089V50.3314ZM259.969 48.6034C259.969 48.4914 260.013 48.3994 260.101 48.3274C260.189 48.2474 260.285 48.2074 260.389 48.2074C260.501 48.2074 260.597 48.2474 260.677 48.3274C260.757 48.3994 260.797 48.4914 260.797 48.6034C260.797 48.7234 260.757 48.8234 260.677 48.9034C260.597 48.9754 260.501 49.0114 260.389 49.0114C260.285 49.0114 260.189 48.9714 260.101 48.8914C260.013 48.8114 259.969 48.7154 259.969 48.6034ZM266.409 54.5674C266.193 54.7434 265.949 54.8794 265.677 54.9754C265.405 55.0714 265.121 55.1194 264.825 55.1194C264.345 55.1194 263.917 55.0154 263.541 54.8074C263.165 54.5914 262.869 54.2994 262.653 53.9314C262.437 53.5634 262.329 53.1434 262.329 52.6714C262.329 52.1994 262.441 51.7794 262.665 51.4114C262.889 51.0434 263.185 50.7554 263.553 50.5474C263.929 50.3314 264.337 50.2234 264.777 50.2234C265.105 50.2234 265.409 50.2714 265.689 50.3674C265.969 50.4634 266.213 50.5994 266.421 50.7754L266.121 51.1594C265.953 51.0234 265.757 50.9114 265.533 50.8234C265.309 50.7354 265.069 50.6914 264.813 50.6914C264.461 50.6914 264.137 50.7794 263.841 50.9554C263.553 51.1314 263.321 51.3714 263.145 51.6754C262.977 51.9714 262.893 52.3034 262.893 52.6714C262.893 53.0314 262.977 53.3634 263.145 53.6674C263.321 53.9634 263.557 54.1994 263.853 54.3754C264.157 54.5514 264.493 54.6394 264.861 54.6394C265.101 54.6394 265.325 54.6034 265.533 54.5314C265.741 54.4514 265.929 54.3474 266.097 54.2194L266.409 54.5674ZM270.016 55.1194C269.528 55.1194 269.096 55.0114 268.72 54.7954C268.344 54.5794 268.048 54.2874 267.832 53.9194C267.624 53.5434 267.52 53.1234 267.52 52.6594C267.52 52.2034 267.632 51.7874 267.856 51.4114C268.08 51.0354 268.38 50.7354 268.756 50.5114C269.14 50.2874 269.564 50.1754 270.028 50.1754C270.588 50.1754 271.056 50.3394 271.432 50.6674C271.816 50.9954 272.092 51.4234 272.26 51.9514L268.252 53.4994C268.404 53.8274 268.632 54.0994 268.936 54.3154C269.248 54.5234 269.612 54.6274 270.028 54.6274C270.284 54.6274 270.528 54.5794 270.76 54.4834C271 54.3874 271.212 54.2634 271.396 54.1114L271.684 54.5194C271.46 54.6954 271.2 54.8394 270.904 54.9514C270.616 55.0634 270.32 55.1194 270.016 55.1194ZM268.072 52.6354C268.072 52.7874 268.088 52.9354 268.12 53.0794L271.576 51.7234C271.432 51.4354 271.228 51.1874 270.964 50.9794C270.7 50.7634 270.376 50.6554 269.992 50.6554C269.632 50.6554 269.308 50.7434 269.02 50.9194C268.732 51.0954 268.5 51.3314 268.324 51.6274C268.156 51.9234 268.072 52.2594 268.072 52.6354ZM205.824 70.4594C205.552 70.6274 205.212 70.7834 204.804 70.9274C204.404 71.0634 203.956 71.1274 203.46 71.1194C202.812 71.1194 202.224 71.0074 201.696 70.7834C201.168 70.5514 200.716 70.2394 200.34 69.8474C199.964 69.4474 199.672 68.9914 199.464 68.4794C199.264 67.9594 199.164 67.4074 199.164 66.8234C199.164 66.1994 199.272 65.6194 199.488 65.0834C199.704 64.5474 200.008 64.0794 200.4 63.6794C200.792 63.2794 201.248 62.9674 201.768 62.7434C202.288 62.5194 202.852 62.4074 203.46 62.4074C203.908 62.4074 204.328 62.4674 204.72 62.5874C205.112 62.7074 205.468 62.8634 205.788 63.0554L205.536 63.5954C205.256 63.4194 204.94 63.2714 204.588 63.1514C204.236 63.0314 203.864 62.9714 203.472 62.9714C202.968 62.9714 202.492 63.0714 202.044 63.2714C201.596 63.4634 201.2 63.7354 200.856 64.0874C200.52 64.4314 200.256 64.8354 200.064 65.2994C199.872 65.7634 199.776 66.2634 199.776 66.7994C199.776 67.4874 199.928 68.1154 200.232 68.6834C200.536 69.2514 200.964 69.7074 201.516 70.0514C202.068 70.3874 202.72 70.5554 203.472 70.5554C203.888 70.5554 204.268 70.4994 204.612 70.3874C204.964 70.2674 205.276 70.1194 205.548 69.9434L205.824 70.4594ZM207.257 68.6474C207.257 68.1914 207.365 67.7754 207.581 67.3994C207.805 67.0234 208.105 66.7274 208.481 66.5114C208.865 66.2874 209.293 66.1754 209.765 66.1754C210.245 66.1754 210.673 66.2874 211.049 66.5114C211.425 66.7274 211.721 67.0234 211.937 67.3994C212.153 67.7754 212.261 68.1914 212.261 68.6474C212.261 69.1034 212.153 69.5194 211.937 69.8954C211.721 70.2714 211.421 70.5714 211.037 70.7954C210.661 71.0114 210.233 71.1194 209.753 71.1194C209.281 71.1194 208.857 71.0154 208.481 70.8074C208.105 70.5914 207.805 70.2994 207.581 69.9314C207.365 69.5554 207.257 69.1274 207.257 68.6474ZM207.821 68.6594C207.821 69.0274 207.905 69.3634 208.073 69.6674C208.249 69.9634 208.481 70.1994 208.769 70.3754C209.065 70.5514 209.393 70.6394 209.753 70.6394C210.113 70.6394 210.437 70.5514 210.725 70.3754C211.021 70.1994 211.253 69.9634 211.421 69.6674C211.597 69.3634 211.685 69.0274 211.685 68.6594C211.685 68.2914 211.597 67.9594 211.421 67.6634C211.253 67.3594 211.021 67.1194 210.725 66.9434C210.437 66.7594 210.113 66.6674 209.753 66.6674C209.385 66.6674 209.053 66.7634 208.757 66.9554C208.469 67.1394 208.241 67.3834 208.073 67.6874C207.905 67.9914 207.821 68.3154 207.821 68.6594ZM214.427 66.3314L214.475 67.3754C214.635 67.0074 214.895 66.7194 215.255 66.5114C215.623 66.3034 216.023 66.1994 216.455 66.1994C216.895 66.1994 217.251 66.3314 217.523 66.5954C217.795 66.8514 217.935 67.1874 217.943 67.6034V71.0234H217.367V67.7594C217.359 67.4554 217.263 67.2034 217.079 67.0034C216.895 66.8034 216.627 66.6994 216.275 66.6914C215.963 66.6914 215.671 66.7674 215.399 66.9194C215.127 67.0714 214.907 67.2834 214.739 67.5554C214.579 67.8274 214.499 68.1434 214.499 68.5034V71.0234H213.935V66.3314H214.427ZM220.544 64.2674H221.12V66.3914H222.572V66.8474H221.12V71.0234H220.544V66.8474H219.548V66.3914H220.544V64.2674ZM223.978 66.3314H224.542V71.0234H223.978V66.3314ZM223.858 64.6034C223.858 64.4914 223.902 64.3994 223.99 64.3274C224.078 64.2474 224.174 64.2074 224.278 64.2074C224.39 64.2074 224.486 64.2474 224.566 64.3274C224.646 64.3994 224.686 64.4914 224.686 64.6034C224.686 64.7234 224.646 64.8234 224.566 64.9034C224.486 64.9754 224.39 65.0114 224.278 65.0114C224.174 65.0114 224.078 64.9714 223.99 64.8914C223.902 64.8114 223.858 64.7154 223.858 64.6034ZM227.165 66.3314L227.213 67.3754C227.373 67.0074 227.633 66.7194 227.993 66.5114C228.361 66.3034 228.761 66.1994 229.193 66.1994C229.633 66.1994 229.989 66.3314 230.261 66.5954C230.533 66.8514 230.673 67.1874 230.681 67.6034V71.0234H230.105V67.7594C230.097 67.4554 230.001 67.2034 229.817 67.0034C229.633 66.8034 229.365 66.6994 229.013 66.6914C228.701 66.6914 228.409 66.7674 228.137 66.9194C227.865 67.0714 227.645 67.2834 227.477 67.5554C227.317 67.8274 227.237 68.1434 227.237 68.5034V71.0234H226.673V66.3314H227.165ZM234.854 71.1194C234.366 71.1194 233.934 71.0114 233.558 70.7954C233.182 70.5794 232.886 70.2874 232.67 69.9194C232.462 69.5434 232.358 69.1234 232.358 68.6594C232.358 68.2034 232.47 67.7874 232.694 67.4114C232.918 67.0354 233.218 66.7354 233.594 66.5114C233.978 66.2874 234.402 66.1754 234.866 66.1754C235.426 66.1754 235.894 66.3394 236.27 66.6674C236.654 66.9954 236.93 67.4234 237.098 67.9514L233.09 69.4994C233.242 69.8274 233.47 70.0994 233.774 70.3154C234.086 70.5234 234.45 70.6274 234.866 70.6274C235.122 70.6274 235.366 70.5794 235.598 70.4834C235.838 70.3874 236.05 70.2634 236.234 70.1114L236.522 70.5194C236.298 70.6954 236.038 70.8394 235.742 70.9514C235.454 71.0634 235.158 71.1194 234.854 71.1194ZM232.91 68.6354C232.91 68.7874 232.926 68.9354 232.958 69.0794L236.414 67.7234C236.27 67.4354 236.066 67.1874 235.802 66.9794C235.538 66.7634 235.214 66.6554 234.83 66.6554C234.47 66.6554 234.146 66.7434 233.858 66.9194C233.57 67.0954 233.338 67.3314 233.162 67.6274C232.994 67.9234 232.91 68.2594 232.91 68.6354ZM239.154 66.3314L239.202 67.3754C239.362 67.0074 239.622 66.7194 239.982 66.5114C240.35 66.3034 240.75 66.1994 241.182 66.1994C241.622 66.1994 241.978 66.3314 242.25 66.5954C242.522 66.8514 242.662 67.1874 242.67 67.6034V71.0234H242.094V67.7594C242.086 67.4554 241.99 67.2034 241.806 67.0034C241.622 66.8034 241.354 66.6994 241.002 66.6914C240.69 66.6914 240.398 66.7674 240.126 66.9194C239.854 67.0714 239.634 67.2834 239.466 67.5554C239.306 67.8274 239.226 68.1434 239.226 68.5034V71.0234H238.662V66.3314H239.154ZM245.27 64.2674H245.846V66.3914H247.298V66.8474H245.846V71.0234H245.27V66.8474H244.274V66.3914H245.27V64.2674ZM250.649 71.1194C250.201 71.1194 249.793 71.0194 249.425 70.8194C249.065 70.6114 248.777 70.3234 248.561 69.9554C248.353 69.5874 248.249 69.1594 248.249 68.6714C248.249 68.1514 248.361 67.7074 248.585 67.3394C248.809 66.9634 249.113 66.6794 249.497 66.4874C249.881 66.2874 250.317 66.1874 250.805 66.1874C251.189 66.1874 251.557 66.2994 251.909 66.5234C252.269 66.7394 252.537 67.0154 252.713 67.3514L252.773 66.3314H253.277V71.0234H252.713V70.0274C252.537 70.3074 252.265 70.5594 251.897 70.7834C251.529 71.0074 251.113 71.1194 250.649 71.1194ZM250.769 70.6394C251.121 70.6394 251.437 70.5674 251.717 70.4234C252.005 70.2714 252.237 70.0634 252.413 69.7994C252.589 69.5354 252.689 69.2314 252.713 68.8874V68.2154C252.649 67.9194 252.521 67.6554 252.329 67.4234C252.145 67.1914 251.917 67.0074 251.645 66.8714C251.373 66.7354 251.077 66.6674 250.757 66.6674C250.405 66.6674 250.081 66.7514 249.785 66.9194C249.489 67.0794 249.253 67.3074 249.077 67.6034C248.901 67.8994 248.813 68.2474 248.813 68.6474C248.813 69.0154 248.901 69.3514 249.077 69.6554C249.253 69.9514 249.489 70.1914 249.785 70.3754C250.089 70.5514 250.417 70.6394 250.769 70.6394ZM255.408 61.9034H255.972V71.0234H255.408V61.9034ZM263.955 62.5034C264.779 62.5034 265.415 62.6754 265.863 63.0194C266.319 63.3554 266.547 63.9034 266.547 64.6634C266.547 65.1274 266.439 65.5394 266.223 65.8994C266.007 66.2594 265.687 66.5234 265.263 66.6914C265.751 66.8354 266.159 67.0874 266.487 67.4474C266.815 67.7994 266.979 68.2354 266.979 68.7554C266.979 69.2674 266.851 69.6914 266.595 70.0274C266.339 70.3634 266.007 70.6154 265.599 70.7834C265.191 70.9434 264.755 71.0234 264.291 71.0234H262.071V62.5034H263.955ZM264.231 66.4874C264.839 66.4874 265.275 66.3234 265.539 65.9954C265.811 65.6674 265.947 65.2594 265.947 64.7714C265.947 64.1634 265.767 63.7274 265.407 63.4634C265.055 63.1994 264.579 63.0674 263.979 63.0674H262.659V66.4874H264.231ZM264.267 70.4834C264.651 70.4834 265.003 70.4234 265.323 70.3034C265.643 70.1754 265.899 69.9834 266.091 69.7274C266.283 69.4714 266.379 69.1554 266.379 68.7794C266.379 68.3634 266.271 68.0314 266.055 67.7834C265.839 67.5274 265.567 67.3434 265.239 67.2314C264.911 67.1114 264.575 67.0514 264.231 67.0514H262.659V70.4834H264.267ZM269.353 66.3314L269.401 67.4474C269.521 67.1914 269.689 66.9714 269.905 66.7874C270.129 66.5954 270.369 66.4514 270.625 66.3554C270.889 66.2514 271.141 66.1994 271.381 66.1994L271.357 66.7514C270.997 66.7514 270.669 66.8314 270.373 66.9914C270.085 67.1514 269.853 67.3674 269.677 67.6394C269.509 67.9034 269.425 68.2034 269.425 68.5394V71.0234H268.861V66.3314H269.353ZM274.815 71.1194C274.327 71.1194 273.895 71.0114 273.519 70.7954C273.143 70.5794 272.847 70.2874 272.631 69.9194C272.423 69.5434 272.319 69.1234 272.319 68.6594C272.319 68.2034 272.431 67.7874 272.655 67.4114C272.879 67.0354 273.179 66.7354 273.555 66.5114C273.939 66.2874 274.363 66.1754 274.827 66.1754C275.387 66.1754 275.855 66.3394 276.231 66.6674C276.615 66.9954 276.891 67.4234 277.059 67.9514L273.051 69.4994C273.203 69.8274 273.431 70.0994 273.735 70.3154C274.047 70.5234 274.411 70.6274 274.827 70.6274C275.083 70.6274 275.327 70.5794 275.559 70.4834C275.799 70.3874 276.011 70.2634 276.195 70.1114L276.483 70.5194C276.259 70.6954 275.999 70.8394 275.703 70.9514C275.415 71.0634 275.119 71.1194 274.815 71.1194ZM272.871 68.6354C272.871 68.7874 272.887 68.9354 272.919 69.0794L276.375 67.7234C276.231 67.4354 276.027 67.1874 275.763 66.9794C275.499 66.7634 275.175 66.6554 274.791 66.6554C274.431 66.6554 274.107 66.7434 273.819 66.9194C273.531 67.0954 273.299 67.3314 273.123 67.6274C272.955 67.9234 272.871 68.2594 272.871 68.6354ZM280.567 71.1194C280.119 71.1194 279.711 71.0194 279.343 70.8194C278.983 70.6114 278.695 70.3234 278.479 69.9554C278.271 69.5874 278.167 69.1594 278.167 68.6714C278.167 68.1514 278.279 67.7074 278.503 67.3394C278.727 66.9634 279.031 66.6794 279.415 66.4874C279.799 66.2874 280.235 66.1874 280.723 66.1874C281.107 66.1874 281.475 66.2994 281.827 66.5234C282.187 66.7394 282.455 67.0154 282.631 67.3514L282.691 66.3314H283.195V71.0234H282.631V70.0274C282.455 70.3074 282.183 70.5594 281.815 70.7834C281.447 71.0074 281.031 71.1194 280.567 71.1194ZM280.687 70.6394C281.039 70.6394 281.355 70.5674 281.635 70.4234C281.923 70.2714 282.155 70.0634 282.331 69.7994C282.507 69.5354 282.607 69.2314 282.631 68.8874V68.2154C282.567 67.9194 282.439 67.6554 282.247 67.4234C282.063 67.1914 281.835 67.0074 281.563 66.8714C281.291 66.7354 280.995 66.6674 280.675 66.6674C280.323 66.6674 279.999 66.7514 279.703 66.9194C279.407 67.0794 279.171 67.3074 278.995 67.6034C278.819 67.8994 278.731 68.2474 278.731 68.6474C278.731 69.0154 278.819 69.3514 278.995 69.6554C279.171 69.9514 279.407 70.1914 279.703 70.3754C280.007 70.5514 280.335 70.6394 280.687 70.6394ZM285.326 71.0234V61.9034H285.89V68.5394L288.518 66.2354L288.866 66.5354L287.066 68.1194L289.154 71.0234H288.494L286.682 68.4554L285.89 69.1514V71.0234H285.326ZM290.308 70.6154C290.308 70.5034 290.348 70.4074 290.428 70.3274C290.508 70.2474 290.6 70.2074 290.704 70.2074C290.808 70.2074 290.9 70.2474 290.98 70.3274C291.068 70.4074 291.112 70.5034 291.112 70.6154C291.112 70.7354 291.068 70.8354 290.98 70.9154C290.9 70.9874 290.808 71.0234 290.704 71.0234C290.6 71.0234 290.508 70.9874 290.428 70.9154C290.348 70.8354 290.308 70.7354 290.308 70.6154Z" fill="#14202B"/>
<path d="M335.618 47.4634C335.37 47.3434 335.066 47.2314 334.706 47.1274C334.346 47.0234 333.986 46.9714 333.626 46.9714C333.066 46.9714 332.618 47.1114 332.282 47.3914C331.946 47.6714 331.778 48.0234 331.778 48.4474C331.778 48.7674 331.874 49.0354 332.066 49.2514C332.258 49.4594 332.51 49.6394 332.822 49.7914C333.134 49.9354 333.466 50.0754 333.818 50.2114C334.098 50.3154 334.374 50.4314 334.646 50.5594C334.926 50.6874 335.178 50.8434 335.402 51.0274C335.626 51.2114 335.802 51.4394 335.93 51.7114C336.066 51.9834 336.134 52.3194 336.134 52.7194C336.134 53.1914 336.022 53.6114 335.798 53.9794C335.574 54.3394 335.262 54.6194 334.862 54.8194C334.462 55.0194 333.998 55.1194 333.47 55.1194C333.046 55.1194 332.658 55.0674 332.306 54.9634C331.962 54.8594 331.658 54.7394 331.394 54.6034C331.138 54.4594 330.934 54.3394 330.782 54.2434L331.058 53.7634C331.234 53.8914 331.446 54.0194 331.694 54.1474C331.95 54.2754 332.226 54.3834 332.522 54.4714C332.818 54.5594 333.114 54.6034 333.41 54.6034C333.754 54.6034 334.086 54.5354 334.406 54.3994C334.734 54.2634 335.002 54.0594 335.21 53.7874C335.426 53.5074 335.534 53.1554 335.534 52.7314C335.534 52.3234 335.434 51.9954 335.234 51.7474C335.034 51.4914 334.778 51.2834 334.466 51.1234C334.154 50.9634 333.822 50.8194 333.47 50.6914C333.102 50.5554 332.742 50.4034 332.39 50.2354C332.038 50.0594 331.746 49.8354 331.514 49.5634C331.29 49.2914 331.178 48.9394 331.178 48.5074C331.178 48.0994 331.282 47.7434 331.49 47.4394C331.698 47.1354 331.978 46.8994 332.33 46.7314C332.69 46.5554 333.098 46.4634 333.554 46.4554C333.954 46.4554 334.358 46.5074 334.766 46.6114C335.182 46.7154 335.542 46.8474 335.846 47.0074L335.618 47.4634ZM338.043 55.0234V45.9034H338.595V51.3034C338.763 50.9914 339.019 50.7314 339.363 50.5234C339.715 50.3074 340.115 50.1994 340.563 50.1994C341.003 50.1994 341.359 50.3314 341.631 50.5954C341.903 50.8514 342.043 51.1874 342.051 51.6034V55.0234H341.475V51.7594C341.467 51.4554 341.371 51.2034 341.187 51.0034C341.003 50.8034 340.735 50.6994 340.383 50.6914C340.071 50.6914 339.779 50.7714 339.507 50.9314C339.235 51.0914 339.015 51.3074 338.847 51.5794C338.687 51.8514 338.607 52.1594 338.607 52.5034V55.0234H338.043ZM346.127 55.1194C345.679 55.1194 345.271 55.0194 344.903 54.8194C344.543 54.6114 344.255 54.3234 344.039 53.9554C343.831 53.5874 343.727 53.1594 343.727 52.6714C343.727 52.1514 343.839 51.7074 344.063 51.3394C344.287 50.9634 344.591 50.6794 344.975 50.4874C345.359 50.2874 345.795 50.1874 346.283 50.1874C346.667 50.1874 347.035 50.2994 347.387 50.5234C347.747 50.7394 348.015 51.0154 348.191 51.3514L348.251 50.3314H348.755V55.0234H348.191V54.0274C348.015 54.3074 347.743 54.5594 347.375 54.7834C347.007 55.0074 346.591 55.1194 346.127 55.1194ZM346.247 54.6394C346.599 54.6394 346.915 54.5674 347.195 54.4234C347.483 54.2714 347.715 54.0634 347.891 53.7994C348.067 53.5354 348.167 53.2314 348.191 52.8874V52.2154C348.127 51.9194 347.999 51.6554 347.807 51.4234C347.623 51.1914 347.395 51.0074 347.123 50.8714C346.851 50.7354 346.555 50.6674 346.235 50.6674C345.883 50.6674 345.559 50.7514 345.263 50.9194C344.967 51.0794 344.731 51.3074 344.555 51.6034C344.379 51.8994 344.291 52.2474 344.291 52.6474C344.291 53.0154 344.379 53.3514 344.555 53.6554C344.731 53.9514 344.967 54.1914 345.263 54.3754C345.567 54.5514 345.895 54.6394 346.247 54.6394ZM351.378 50.3314L351.426 51.4474C351.546 51.1914 351.714 50.9714 351.93 50.7874C352.154 50.5954 352.394 50.4514 352.65 50.3554C352.914 50.2514 353.166 50.1994 353.406 50.1994L353.382 50.7514C353.022 50.7514 352.694 50.8314 352.398 50.9914C352.11 51.1514 351.878 51.3674 351.702 51.6394C351.534 51.9034 351.45 52.2034 351.45 52.5394V55.0234H350.886V50.3314H351.378ZM356.84 55.1194C356.352 55.1194 355.92 55.0114 355.544 54.7954C355.168 54.5794 354.872 54.2874 354.656 53.9194C354.448 53.5434 354.344 53.1234 354.344 52.6594C354.344 52.2034 354.456 51.7874 354.68 51.4114C354.904 51.0354 355.204 50.7354 355.58 50.5114C355.964 50.2874 356.388 50.1754 356.852 50.1754C357.412 50.1754 357.88 50.3394 358.256 50.6674C358.64 50.9954 358.916 51.4234 359.084 51.9514L355.076 53.4994C355.228 53.8274 355.456 54.0994 355.76 54.3154C356.072 54.5234 356.436 54.6274 356.852 54.6274C357.108 54.6274 357.352 54.5794 357.584 54.4834C357.824 54.3874 358.036 54.2634 358.22 54.1114L358.508 54.5194C358.284 54.6954 358.024 54.8394 357.728 54.9514C357.44 55.0634 357.144 55.1194 356.84 55.1194ZM354.896 52.6354C354.896 52.7874 354.912 52.9354 354.944 53.0794L358.4 51.7234C358.256 51.4354 358.052 51.1874 357.788 50.9794C357.524 50.7634 357.2 50.6554 356.816 50.6554C356.456 50.6554 356.132 50.7434 355.844 50.9194C355.556 51.0954 355.324 51.3314 355.148 51.6274C354.98 51.9234 354.896 52.2594 354.896 52.6354ZM362.568 55.1194C362.128 55.1194 361.728 55.0154 361.368 54.8074C361.008 54.5914 360.72 54.2954 360.504 53.9194C360.296 53.5434 360.192 53.1194 360.192 52.6474C360.192 52.1434 360.3 51.7074 360.516 51.3394C360.732 50.9714 361.024 50.6874 361.392 50.4874C361.768 50.2874 362.18 50.1874 362.628 50.1874C363.044 50.1874 363.44 50.2874 363.816 50.4874C364.192 50.6874 364.484 50.9514 364.692 51.2794V45.9034H365.256V55.0234H364.68V54.0514C364.464 54.3714 364.168 54.6314 363.792 54.8314C363.416 55.0234 363.008 55.1194 362.568 55.1194ZM362.712 54.6274C363.072 54.6274 363.396 54.5514 363.684 54.3994C363.972 54.2394 364.204 54.0274 364.38 53.7634C364.556 53.4914 364.656 53.1874 364.68 52.8514V52.2514C364.624 51.9474 364.5 51.6754 364.308 51.4354C364.116 51.1954 363.884 51.0074 363.612 50.8714C363.34 50.7274 363.04 50.6554 362.712 50.6554C362.352 50.6554 362.024 50.7394 361.728 50.9074C361.432 51.0754 361.196 51.3074 361.02 51.6034C360.844 51.8994 360.756 52.2434 360.756 52.6354C360.756 53.0034 360.844 53.3394 361.02 53.6434C361.196 53.9394 361.432 54.1794 361.728 54.3634C362.032 54.5394 362.36 54.6274 362.712 54.6274ZM328.426 62.5034C329.25 62.5034 329.886 62.6754 330.334 63.0194C330.79 63.3554 331.018 63.9034 331.018 64.6634C331.018 65.1274 330.91 65.5394 330.694 65.8994C330.478 66.2594 330.158 66.5234 329.734 66.6914C330.222 66.8354 330.63 67.0874 330.958 67.4474C331.286 67.7994 331.45 68.2354 331.45 68.7554C331.45 69.2674 331.322 69.6914 331.066 70.0274C330.81 70.3634 330.478 70.6154 330.07 70.7834C329.662 70.9434 329.226 71.0234 328.762 71.0234H326.542V62.5034H328.426ZM328.702 66.4874C329.31 66.4874 329.746 66.3234 330.01 65.9954C330.282 65.6674 330.418 65.2594 330.418 64.7714C330.418 64.1634 330.238 63.7274 329.878 63.4634C329.526 63.1994 329.05 63.0674 328.45 63.0674H327.13V66.4874H328.702ZM328.738 70.4834C329.122 70.4834 329.474 70.4234 329.794 70.3034C330.114 70.1754 330.37 69.9834 330.562 69.7274C330.754 69.4714 330.85 69.1554 330.85 68.7794C330.85 68.3634 330.742 68.0314 330.526 67.7834C330.31 67.5274 330.038 67.3434 329.71 67.2314C329.382 67.1114 329.046 67.0514 328.702 67.0514H327.13V70.4834H328.738ZM335.276 71.1194C334.828 71.1194 334.42 71.0194 334.052 70.8194C333.692 70.6114 333.404 70.3234 333.188 69.9554C332.98 69.5874 332.876 69.1594 332.876 68.6714C332.876 68.1514 332.988 67.7074 333.212 67.3394C333.436 66.9634 333.74 66.6794 334.124 66.4874C334.508 66.2874 334.944 66.1874 335.432 66.1874C335.816 66.1874 336.184 66.2994 336.536 66.5234C336.896 66.7394 337.164 67.0154 337.34 67.3514L337.4 66.3314H337.904V71.0234H337.34V70.0274C337.164 70.3074 336.892 70.5594 336.524 70.7834C336.156 71.0074 335.74 71.1194 335.276 71.1194ZM335.396 70.6394C335.748 70.6394 336.064 70.5674 336.344 70.4234C336.632 70.2714 336.864 70.0634 337.04 69.7994C337.216 69.5354 337.316 69.2314 337.34 68.8874V68.2154C337.276 67.9194 337.148 67.6554 336.956 67.4234C336.772 67.1914 336.544 67.0074 336.272 66.8714C336 66.7354 335.704 66.6674 335.384 66.6674C335.032 66.6674 334.708 66.7514 334.412 66.9194C334.116 67.0794 333.88 67.3074 333.704 67.6034C333.528 67.8994 333.44 68.2474 333.44 68.6474C333.44 69.0154 333.528 69.3514 333.704 69.6554C333.88 69.9514 334.116 70.1914 334.412 70.3754C334.716 70.5514 335.044 70.6394 335.396 70.6394ZM340.503 64.2674H341.079V66.3914H342.531V66.8474H341.079V71.0234H340.503V66.8474H339.507V66.3914H340.503V64.2674ZM343.937 71.0234V61.9034H344.489V67.3034C344.657 66.9914 344.913 66.7314 345.257 66.5234C345.609 66.3074 346.009 66.1994 346.457 66.1994C346.897 66.1994 347.253 66.3314 347.525 66.5954C347.797 66.8514 347.937 67.1874 347.945 67.6034V71.0234H347.369V67.7594C347.361 67.4554 347.265 67.2034 347.081 67.0034C346.897 66.8034 346.629 66.6994 346.277 66.6914C345.965 66.6914 345.673 66.7714 345.401 66.9314C345.129 67.0914 344.909 67.3074 344.741 67.5794C344.581 67.8514 344.501 68.1594 344.501 68.5034V71.0234H343.937ZM350.57 66.3314L350.618 67.4474C350.738 67.1914 350.906 66.9714 351.122 66.7874C351.346 66.5954 351.586 66.4514 351.842 66.3554C352.106 66.2514 352.358 66.1994 352.598 66.1994L352.574 66.7514C352.214 66.7514 351.886 66.8314 351.59 66.9914C351.302 67.1514 351.07 67.3674 350.894 67.6394C350.726 67.9034 350.642 68.2034 350.642 68.5394V71.0234H350.078V66.3314H350.57ZM353.536 68.6474C353.536 68.1914 353.644 67.7754 353.86 67.3994C354.084 67.0234 354.384 66.7274 354.76 66.5114C355.144 66.2874 355.572 66.1754 356.044 66.1754C356.524 66.1754 356.952 66.2874 357.328 66.5114C357.704 66.7274 358 67.0234 358.216 67.3994C358.432 67.7754 358.54 68.1914 358.54 68.6474C358.54 69.1034 358.432 69.5194 358.216 69.8954C358 70.2714 357.7 70.5714 357.316 70.7954C356.94 71.0114 356.512 71.1194 356.032 71.1194C355.56 71.1194 355.136 71.0154 354.76 70.8074C354.384 70.5914 354.084 70.2994 353.86 69.9314C353.644 69.5554 353.536 69.1274 353.536 68.6474ZM354.1 68.6594C354.1 69.0274 354.184 69.3634 354.352 69.6674C354.528 69.9634 354.76 70.1994 355.048 70.3754C355.344 70.5514 355.672 70.6394 356.032 70.6394C356.392 70.6394 356.716 70.5514 357.004 70.3754C357.3 70.1994 357.532 69.9634 357.7 69.6674C357.876 69.3634 357.964 69.0274 357.964 68.6594C357.964 68.2914 357.876 67.9594 357.7 67.6634C357.532 67.3594 357.3 67.1194 357.004 66.9434C356.716 66.7594 356.392 66.6674 356.032 66.6674C355.664 66.6674 355.332 66.7634 355.036 66.9554C354.748 67.1394 354.52 67.3834 354.352 67.6874C354.184 67.9914 354.1 68.3154 354.1 68.6594ZM359.758 68.6474C359.758 68.1914 359.866 67.7754 360.082 67.3994C360.306 67.0234 360.606 66.7274 360.982 66.5114C361.366 66.2874 361.794 66.1754 362.266 66.1754C362.746 66.1754 363.174 66.2874 363.55 66.5114C363.926 66.7274 364.222 67.0234 364.438 67.3994C364.654 67.7754 364.762 68.1914 364.762 68.6474C364.762 69.1034 364.654 69.5194 364.438 69.8954C364.222 70.2714 363.922 70.5714 363.538 70.7954C363.162 71.0114 362.734 71.1194 362.254 71.1194C361.782 71.1194 361.358 71.0154 360.982 70.8074C360.606 70.5914 360.306 70.2994 360.082 69.9314C359.866 69.5554 359.758 69.1274 359.758 68.6474ZM360.322 68.6594C360.322 69.0274 360.406 69.3634 360.574 69.6674C360.75 69.9634 360.982 70.1994 361.27 70.3754C361.566 70.5514 361.894 70.6394 362.254 70.6394C362.614 70.6394 362.938 70.5514 363.226 70.3754C363.522 70.1994 363.754 69.9634 363.922 69.6674C364.098 69.3634 364.186 69.0274 364.186 68.6594C364.186 68.2914 364.098 67.9594 363.922 67.6634C363.754 67.3594 363.522 67.1194 363.226 66.9434C362.938 66.7594 362.614 66.6674 362.254 66.6674C361.886 66.6674 361.554 66.7634 361.258 66.9554C360.97 67.1394 360.742 67.3834 360.574 67.6874C360.406 67.9914 360.322 68.3154 360.322 68.6594ZM366.929 66.3314L366.977 67.3634C367.153 67.0034 367.417 66.7194 367.769 66.5114C368.121 66.3034 368.505 66.1994 368.921 66.1994C369.297 66.1994 369.621 66.3034 369.893 66.5114C370.165 66.7114 370.325 66.9714 370.373 67.2914C370.557 66.9394 370.821 66.6714 371.165 66.4874C371.509 66.2954 371.877 66.1994 372.269 66.1994C372.717 66.1994 373.073 66.3314 373.337 66.5954C373.601 66.8514 373.737 67.1874 373.745 67.6034V71.0234H373.181V67.7234C373.173 67.4434 373.085 67.2074 372.917 67.0154C372.749 66.8154 372.493 66.7074 372.149 66.6914C371.837 66.6914 371.549 66.7714 371.285 66.9314C371.021 67.0914 370.805 67.3034 370.637 67.5674C370.477 67.8314 370.389 68.1274 370.373 68.4554V71.0234H369.809V67.7234C369.801 67.4434 369.709 67.2074 369.533 67.0154C369.365 66.8154 369.109 66.7074 368.765 66.6914C368.445 66.6914 368.149 66.7714 367.877 66.9314C367.613 67.0914 367.401 67.3114 367.241 67.5914C367.081 67.8634 367.001 68.1674 367.001 68.5034V71.0234H366.437V66.3314H366.929Z" fill="#14202B"/>
<path d="M117 2.11044C117.598 0.603161 118.432 0.0315536 120.04 0.0315536C131.588 0.0315536 143.134 0.0288483 154.678 0.0234375C156.314 0.0234375 157.511 1.45999 157.503 2.85365C157.458 11.1947 157.458 19.5354 157.503 27.8757C157.51 29.1708 156.292 30.6885 154.77 30.6178C154.087 30.5865 153.401 30.6178 152.716 30.6178C152.16 30.6178 152.16 30.6178 152.399 31.1024C152.638 31.5871 152.884 32.0694 153.121 32.5564C153.518 33.368 153.121 34.0149 152.202 34.0161C149.623 34.0223 147.043 34.0223 144.465 34.0161H122.62C122.37 34.0343 122.119 34.0187 121.874 33.9697C121.274 33.8051 121.003 33.274 121.264 32.7082C121.534 32.1204 121.825 31.5418 122.126 30.9691C122.274 30.6873 122.22 30.6027 121.906 30.6096C121.213 30.6236 120.51 30.6027 119.812 30.6166C118.513 30.6409 117.649 30.0079 117.115 28.8554L117 28.605V2.11044ZM137.186 28.8171H154.682C155.555 28.8171 155.699 28.6757 155.699 27.8165V3.94585C155.699 3.48207 155.699 3.01829 155.699 2.55451C155.699 2.14754 155.5 1.9087 155.099 1.85188C154.93 1.82945 154.76 1.81861 154.59 1.81942C149.218 1.81942 143.847 1.81942 138.476 1.81942H119.832C118.925 1.81942 118.754 1.99334 118.754 2.90814C118.754 11.209 118.754 19.5095 118.754 27.8096C118.754 28.6734 118.9 28.8148 119.768 28.8148L137.186 28.8171ZM137.231 32.2259H150.497C150.953 32.2259 150.953 32.2259 150.745 31.8027C150.623 31.5534 150.478 31.3134 150.381 31.0549C150.25 30.707 150.029 30.6073 149.659 30.6073C141.632 30.6178 133.607 30.6363 125.577 30.5876C124.591 30.5818 124.009 30.8125 123.71 31.7702C123.561 32.2456 123.5 32.2259 124.005 32.2259H137.231Z" fill="#14202B"/>
<path d="M136.452 21.0569C136.452 21.8975 136.452 22.7254 136.452 23.5532C136.452 24.3811 136.117 24.7127 135.297 24.7312C134.124 24.7473 132.959 24.9208 131.832 25.2472C130.882 25.5289 130.4 24.9376 130.402 24.1399C130.421 18.178 130.412 12.2161 130.412 6.25427C130.412 5.48208 130.774 5.11453 131.551 5.11105C132.815 5.10641 134.079 5.10641 135.344 5.11105C135.938 5.11105 136.226 5.32323 136.453 5.88324C136.94 7.09023 137.43 8.29605 137.933 9.53782C138.035 9.37318 137.994 9.241 137.994 9.11694C137.994 8.15228 137.994 7.18762 137.994 6.21832C137.994 5.47164 138.341 5.11453 139.079 5.10989C140.368 5.10139 141.659 5.10139 142.95 5.10989C143.664 5.10989 144.03 5.5099 144.03 6.23456C144.03 11.4428 144.03 16.651 144.03 21.8593V24.3602C144.03 25.2877 143.49 25.7283 142.59 25.4814C141.727 25.2495 140.873 24.9735 139.981 24.868C139.577 24.8205 139.172 24.7521 138.766 24.7521C138.252 24.744 137.929 24.5109 137.74 24.0413C137.37 23.1231 136.991 22.2071 136.611 21.2935C136.587 21.2134 136.597 21.101 136.452 21.0569ZM141.558 23.3167C141.563 23.174 141.527 23.033 141.453 22.9109C140.534 20.6484 139.613 18.3871 138.691 16.127C137.491 13.1812 136.292 10.235 135.092 7.28849C134.987 7.02762 134.872 6.87225 134.556 6.8908C134.094 6.91631 133.632 6.8966 133.171 6.8966C132.645 6.8966 132.645 6.8966 132.844 7.38125L135.837 14.6695C136.92 17.3077 138.001 19.9458 139.081 22.5839C139.177 22.8158 139.281 23.0106 139.571 23.021C140.235 23.0454 140.875 23.2123 141.558 23.3167ZM142.196 19.9659L142.256 19.952V18.818C142.256 14.9996 142.259 11.1815 142.264 7.36386C142.264 7.00559 142.173 6.86877 141.802 6.88964C141.276 6.91805 140.749 6.91805 140.223 6.88964C139.869 6.87225 139.776 7.00559 139.78 7.34531C139.793 9.31637 139.797 11.2874 139.78 13.2504C139.768 13.7901 139.874 14.3259 140.09 14.8203C140.494 15.7374 140.848 16.6754 141.227 17.6029C141.547 18.3921 141.87 19.1798 142.196 19.9659ZM132.264 10.6741L132.195 10.6822V17.4151C132.195 19.2389 132.195 21.0627 132.195 22.8865C132.195 23.1381 132.229 23.2993 132.541 23.2448C133.109 23.1451 133.68 23.0431 134.254 22.9862C134.6 22.9515 134.678 22.8054 134.674 22.4807C134.66 20.6036 134.667 18.7276 134.667 16.8505C134.678 16.6788 134.653 16.5069 134.596 16.3449C133.82 14.4574 133.044 12.5675 132.267 10.6752L132.264 10.6741Z" fill="#14202B"/>
<path d="M14 20.7072C14.0301 20.6233 14.0664 20.5393 14.0902 20.4567C14.2743 19.7603 14.6861 19.1455 15.2599 18.7101C15.8338 18.2747 16.5368 18.0437 17.257 18.054C21.1053 18.0465 24.9532 18.0465 28.8006 18.054H46.6591C48.5381 18.054 49.9324 19.4495 49.9336 21.331V24.3588H14V20.7072Z" fill="#14202B"/>
<path d="M14 25.5503C15.18 25.5578 16.3601 25.5741 17.5401 25.5741C28.1204 25.5741 38.7011 25.5741 49.2822 25.5741H49.9086V33.8795H47.4683V31.3089H16.4803V33.9008H14V25.5503Z" fill="#14202B"/>
<path d="M47.9133 17.0982C46.866 16.7801 45.8438 16.9429 44.8329 16.9116C44.1689 16.8903 43.5038 16.9116 42.801 16.9116C42.7935 16.7613 42.7835 16.6372 42.7822 16.5132C42.7822 15.7416 42.7822 14.9699 42.7822 14.1982C42.7822 13.4266 42.2686 12.9205 41.5107 12.9192C39.1381 12.9192 36.7647 12.9192 34.3904 12.9192C33.6262 12.9192 33.0976 13.4491 33.0901 14.222C33.0901 14.9586 33.0901 15.6952 33.0901 16.4318V16.894H30.7325C30.7325 16.7688 30.7137 16.6498 30.7137 16.527C30.7137 15.7441 30.7137 14.9599 30.7137 14.1769C30.7137 13.4354 30.2014 12.9243 29.461 12.9243C27.0634 12.9176 24.6661 12.9176 22.2693 12.9243C21.5578 12.9243 21.0329 13.4717 21.0266 14.2095C21.0204 14.9812 21.0266 15.7528 21.0266 16.5245V16.8853C19.2954 17.0231 17.5742 16.7299 15.8417 17.0982V15.595C15.8417 11.6891 15.8592 7.78318 15.8342 3.87853C15.8192 2.79745 16.6109 2.15482 17.5253 2.1686C20.4955 2.20242 23.4656 2.18363 26.4358 2.1686C26.627 2.16211 26.8114 2.09597 26.9632 1.97944C28.5343 0.687664 30.5468 0.0586132 32.574 0.225665C34.1243 0.324152 35.6056 0.901984 36.8131 1.87922C37.0481 2.0831 37.3501 2.19286 37.6612 2.18739C40.5612 2.17361 43.4612 2.17987 46.3599 2.18739C47.337 2.18739 47.9095 2.76864 47.9108 3.76954C47.9108 7.33555 47.9108 10.902 47.9108 14.4688L47.9133 17.0982Z" fill="#14202B"/>
</svg>
