<svg width="23" height="23" viewBox="0 0 23 23" fill="none" xmlns="http://www.w3.org/2000/svg">
<path d="M11.4999 0C9.48659 0.000528182 7.50867 0.52944 5.76383 1.53387C4.019 2.5383 2.56836 3.98307 1.55692 5.72378C0.54548 7.46448 0.00865554 9.44015 0.000103796 11.4533C-0.00844794 13.4665 0.511572 15.4467 1.50819 17.1959L0.47262 20.82C0.405035 21.0566 0.401954 21.307 0.463698 21.5452C0.525442 21.7834 0.649763 22.0007 0.82378 22.1747C0.997797 22.3487 1.21518 22.473 1.4534 22.5347C1.69162 22.5965 1.94202 22.5934 2.17864 22.5258L5.80307 21.4904C7.33326 22.3627 9.04339 22.872 10.8015 22.9788C12.5597 23.0857 14.3189 22.7873 15.9435 22.1067C17.5681 21.426 19.0146 20.3814 20.1715 19.0533C21.3284 17.7251 22.1648 16.149 22.6161 14.4466C23.0674 12.7441 23.1216 10.9607 22.7745 9.23389C22.4274 7.50714 21.6883 5.88317 20.6142 4.48725C19.5401 3.09134 18.1597 1.96078 16.5794 1.18277C14.9992 0.404762 13.2613 0.000102051 11.4999 0ZM11.4999 22.0785C9.59978 22.0797 7.73447 21.5686 6.10046 20.5989C6.04659 20.5668 5.98672 20.5461 5.92454 20.538C5.86236 20.5299 5.79918 20.5347 5.7389 20.5519L1.92587 21.6413C1.847 21.6638 1.76354 21.6648 1.68415 21.6442C1.60475 21.6236 1.53231 21.5822 1.47432 21.5242C1.41633 21.4662 1.3749 21.3937 1.35433 21.3143C1.33375 21.2349 1.33478 21.1515 1.35731 21.0726L2.44659 17.2599C2.46381 17.1997 2.46853 17.1365 2.46047 17.0743C2.4524 17.0122 2.43171 16.9523 2.39967 16.8984C1.20802 14.8909 0.713831 12.5456 0.99408 10.228C1.27433 7.91035 2.31328 5.75046 3.94909 4.08479C5.5849 2.41912 7.72571 1.34119 10.038 1.01893C12.3504 0.696667 14.7043 1.14816 16.7333 2.30309C18.7623 3.45801 20.3523 5.25151 21.2556 7.40419C22.159 9.55688 22.3249 11.9479 21.7277 14.2047C21.1304 16.4616 19.8035 18.4575 17.9536 19.8817C16.1036 21.3058 13.8346 22.0782 11.4999 22.0785ZM17.3088 13.6315L14.9559 12.2871C14.743 12.1656 14.5017 12.103 14.2566 12.1056C14.0115 12.1082 13.7715 12.176 13.5613 12.302L11.9735 13.2545C11.0123 12.7676 10.2315 11.9868 9.74457 11.0257L10.6972 9.43796C10.8232 9.22773 10.891 8.98777 10.8935 8.7427C10.8961 8.49764 10.8334 8.2563 10.7119 8.04346L9.3676 5.69072C9.25781 5.49918 9.09945 5.33998 8.90849 5.22918C8.71752 5.11838 8.50072 5.0599 8.27993 5.05965C7.3064 5.05988 6.37261 5.44575 5.68293 6.1328C4.99324 6.81985 4.60384 7.75213 4.59995 8.72559C4.59815 9.99522 4.84668 11.2527 5.33133 12.4262C5.81597 13.5997 6.52722 14.6662 7.42439 15.5646C8.32157 16.463 9.38707 17.1758 10.5599 17.6621C11.7328 18.1484 12.9901 18.3987 14.2598 18.3987H14.2736C15.2471 18.3948 16.1795 18.0055 16.8666 17.3158C17.5537 16.6262 17.9397 15.6925 17.9399 14.719C17.9396 14.4982 17.8812 14.2814 17.7704 14.0905C17.6595 13.8996 17.5003 13.7412 17.3088 13.6315ZM14.2723 17.4788H14.2599C13.1111 17.4788 11.9736 17.2523 10.9124 16.8124C9.85124 16.3724 8.88721 15.7276 8.07547 14.9147C7.26372 14.1019 6.6202 13.137 6.1817 12.0753C5.7432 11.0135 5.51833 9.87579 5.51995 8.72708C5.52311 7.99724 5.8153 7.29838 6.33256 6.78345C6.84983 6.26853 7.55004 5.97948 8.27993 5.97958C8.33856 5.97965 8.39614 5.99518 8.44685 6.02459C8.49757 6.05401 8.53964 6.09627 8.56881 6.14712L9.91315 8.49997C9.95365 8.57091 9.97455 8.65135 9.9737 8.73303C9.97285 8.81471 9.95029 8.89469 9.90833 8.96477L8.82848 10.7642C8.79029 10.8278 8.76807 10.8997 8.7637 10.9738C8.75934 11.0478 8.77296 11.1219 8.80341 11.1895C9.40381 12.5257 10.4735 13.5952 11.8097 14.1955C11.8774 14.226 11.9514 14.2396 12.0255 14.2353C12.0996 14.2309 12.1715 14.2087 12.2351 14.1705L14.0345 13.0907C14.1046 13.0487 14.1846 13.0261 14.2663 13.0253C14.348 13.0244 14.4285 13.0453 14.4994 13.0857L16.8523 14.4302C16.9032 14.4594 16.9455 14.5014 16.9749 14.5521C17.0043 14.6028 17.0198 14.6604 17.0199 14.719C17.02 15.4488 16.7309 16.1489 16.216 16.6662C15.7011 17.1834 15.0022 17.4756 14.2723 17.4788Z" fill="black"/>
</svg>
